<?xml version="1.0" encoding="UTF-8"?>
<svg xmlns="http://www.w3.org/2000/svg" xmlns:xlink="http://www.w3.org/1999/xlink" version="1.1" viewBox="0 0 838.5 1370.1">
  <!-- Generator: Adobe Illustrator 29.7.1, SVG Export Plug-In . SVG Version: 2.1.1 Build 8)  -->
  <defs>
    <style>
      .st0, .st1, .st2, .st3, .st4, .st5, .st6, .st7, .st8, .st9, .st10, .st11, .st12, .st13, .st14, .st15, .st16, .st17, .st18, .st19, .st20, .st21, .st22, .st23, .st24, .st25, .st26, .st27, .st28, .st29, .st30, .st31, .st32, .st33, .st34, .st35, .st36, .st37, .st38, .st39, .st40, .st41 {
        stroke-miterlimit: 10;
      }

      .st0, .st1, .st2, .st3, .st4, .st7, .st9, .st10, .st11, .st12, .st14, .st15, .st16, .st20, .st21, .st22, .st23, .st24, .st25, .st26, .st27, .st28, .st29, .st30, .st31, .st35, .st38, .st40, .st41 {
        stroke: #231815;
      }

      .st0, .st7, .st10, .st12, .st15, .st18, .st22, .st23, .st27, .st35, .st36, .st41 {
        stroke-width: 2px;
      }

      .st0, .st38 {
        fill: #282828;
      }

      .st1, .st2, .st14, .st27, .st33, .st36, .st37 {
        fill: none;
      }

      .st1, .st3, .st4, .st9, .st16, .st17, .st20, .st21, .st26, .st28, .st29, .st34, .st37, .st38, .st40 {
        stroke-width: 7px;
      }

      .st2 {
        stroke-width: 8px;
      }

      .st3 {
        fill: url(#_名称未設定グラデーション_7);
      }

      .st4 {
        fill: url(#_名称未設定グラデーション_8);
      }

      .st42 {
        fill: #ffc5ea;
      }

      .st5, .st6, .st8, .st13, .st19 {
        stroke: #312974;
        stroke-width: 11px;
      }

      .st5, .st43 {
        fill: #ff88e9;
      }

      .st6 {
        fill: #fff7b0;
      }

      .st7, .st28 {
        fill: #3f3f3f;
      }

      .st8 {
        fill: #fffad9;
      }

      .st9, .st11, .st22, .st44 {
        fill: #ffefe9;
      }

      .st10 {
        fill: url(#hairGradientBrown);
      }

      .st11, .st14, .st24, .st31 {
        stroke-width: 3px;
      }

      .st12, .st21, .st45 {
        fill: #fff;
      }

      .st13 {
        fill: #e7ff80;
      }

      .st15, .st16, .st46, .st17, .st24, .st39 {
        fill: #b08db5;
      }

      .st17, .st18, .st32, .st33, .st34, .st36, .st37, .st39 {
        stroke: #000;
      }

      .st18, .st47 {
        fill: #bbb3bc;
      }

      .st19 {
        fill: #ffc7f7;
      }

      .st20, .st41 {
        fill: #3a3a3a;
      }

      .st23 {
        fill: url(#hairGradientBrown1);
      }

      .st48 {
        clip-path: url(#clippath-1);
      }

      .st49 {
        clip-path: url(#clippath-3);
      }

      .st50 {
        clip-path: url(#clippath-4);
      }

      .st51 {
        clip-path: url(#clippath-2);
      }

      .st52 {
        clip-path: url(#clippath-7);
      }

      .st53 {
        clip-path: url(#clippath-6);
      }

      .st54 {
        clip-path: url(#clippath-5);
      }

      .st25, .st26, .st55, .st31 {
        fill: #231815;
      }

      .st29, .st30 {
        fill: #e5aeff;
      }

      .st32, .st34 {
        fill: #6f5e72;
      }

      .st35, .st40 {
        fill: #444;
      }

      .st56 {
        fill: #232526;
      }

      .st57 {
        fill: #312974;
      }

      .st58 {
        fill: #aee6ff;
      }

      .st59 {
        display: none;
      }

      .st60 {
        clip-path: url(#clippath);
      }
    </style>
    <clipPath id="clippath">
      <path class="st17" d="M367.4,1036.5c.8-3.1,3.9-4.9,7.1-4.1h0c4.9,1.2,7.9,6,6.7,10.6l-6.1,12.9-10-2.3,2.3-17ZM381.3,1042.4l-5.7,12.6c19-1.9,26.7,12.4,32.6,12.9.4,0,.8,0,1.1,0,5.9-1.3,10.5-27.7,6-30.5-4.4-2.8-34.1.6-34.1.6v4.4ZM367.6,1034.8s-18.5-14.2-24.4-13.3-12.8,24.3-11.2,28.6,15.4-2.3,33.2,0l2.4-15.3Z"/>
    </clipPath>
    <clipPath id="clippath-1">
      <rect class="st17" x="324.4" y="1016.7" width="97.4" height="55.7"/>
    </clipPath>
    <clipPath id="clippath-2">
      <path class="st17" d="M396.1,1063.5l13.6,23.2s-13.2,14.9-14.5,16.1c0,0-14.4-2.4-19.5-2.2-.9,0-1.6-.7-1.4-1.6,1.2-7.9,5.3-36.3,1.8-43.1l20,7.6Z"/>
    </clipPath>
    <clipPath id="clippath-3">
      <path class="st17" d="M342.2,1052.2l-20.4,17.6s14.5,21.4,15.4,22.9c0,0,22,3.3,22.4,5.1,0,0-7.4-24.1,5.4-47.7l-22.8,2.1Z"/>
    </clipPath>
    <linearGradient id="_名称未設定グラデーション_8" data-name="名称未設定グラデーション 8" x1="241.9" y1="1063.7" x2="246.6" y2="1002.2" gradientTransform="translate(830.9) rotate(-180) scale(1 -1)" gradientUnits="userSpaceOnUse">
      <stop offset="0" stop-color="#957845"/>
      <stop offset="1" stop-color="#3a3a3a"/>
    </linearGradient>
    <linearGradient id="_名称未設定グラデーション_7" data-name="名称未設定グラデーション 7" x1="595.3" y1="1072.4" x2="580.1" y2="996.4" gradientTransform="translate(830.9) rotate(-180) scale(1 -1)" gradientUnits="userSpaceOnUse">
      <stop offset="0" stop-color="#957845"/>
      <stop offset=".6" stop-color="#5c513e"/>
      <stop offset="1" stop-color="#3a3a3a"/>
    </linearGradient>
    <clipPath id="clippath-4">
      <path class="st18" d="M367.4,1036.5c.8-3.1,3.9-4.9,7.1-4.1h0c4.9,1.2,7.9,6,6.7,10.6l-6.1,12.9-10-2.3,2.3-17ZM381.3,1042.4l-5.7,12.6c19-1.9,26.7,12.4,32.6,12.9.4,0,.8,0,1.1,0,5.9-1.3,10.5-27.7,6-30.5-4.4-2.8-34.1.6-34.1.6v4.4ZM367.6,1034.8s-18.5-14.2-24.4-13.3-12.8,24.3-11.2,28.6,15.4-2.3,33.2,0l2.4-15.3Z"/>
    </clipPath>
    <clipPath id="clippath-5">
      <rect class="st39" x="324.4" y="1016.7" width="97.4" height="55.7"/>
    </clipPath>
    <clipPath id="clippath-6">
      <path class="st18" d="M396.1,1063.5l13.6,23.2s-13.2,14.9-14.5,16.1c0,0-14.4-2.4-19.5-2.2-.9,0-1.6-.7-1.4-1.6,1.2-7.9,5.3-36.3,1.8-43.1l20,7.6Z"/>
    </clipPath>
    <clipPath id="clippath-7">
      <path class="st18" d="M342.2,1052.2l-20.4,17.6s14.5,21.4,15.4,22.9c0,0,22,3.3,22.4,5.1,0,0-7.4-24.1,5.4-47.7l-22.8,2.1Z"/>
    </clipPath>
    <linearGradient id="hairGradientBrown" x1="544.7" y1="1029.9" x2="622.1" y2="1029.9" gradientUnits="userSpaceOnUse">
      <stop offset="0" stop-color="#957845"/>
      <stop offset=".6" stop-color="#5c513e"/>
      <stop offset="1" stop-color="#3a3a3a"/>
    </linearGradient>
    <linearGradient id="hairGradientBrown1" data-name="hairGradientBrown" x1="595.3" y1="1072.4" x2="580.1" y2="996.4" gradientTransform="translate(830.9) rotate(-180) scale(1 -1)" xlink:href="#hairGradientBrown"/>
    <image id="image" width="5123" height="2928" xlink:href="../../../../../tem2/illustrater/Candy_Fukaya_Assignment1_ver2/refarance/AdobeStock_1026055486.png"/>
  </defs>
  <g id="light">
    <g id="_レイヤー_1-2">
      <polygon class="st8" points="416.1 289.9 94.8 1133.6 413.7 1173.6 728.8 1125 416.1 289.9"/>
      <ellipse class="st6" cx="413.7" cy="1164" rx="324.6" ry="161.9"/>
    </g>
  </g>
  <g id="ufo">
    <g id="_レイヤー_1-21" data-name="_レイヤー_1-2">
      <circle class="st13" cx="149.4" cy="545.1" r="102"/>
      <circle class="st13" cx="413.7" cy="575.2" r="102.1"/>
      <circle class="st13" cx="678" cy="545.1" r="102"/>
      <g>
        <path class="st43" d="M419.2,577.8c-111.5,0-216.3-11.4-295.1-32.1-75.4-19.8-118.7-46.3-118.7-72.6s43.3-52.8,118.7-72.6c78.7-20.7,183.5-32.1,295.1-32.1s216.3,11.4,295.1,32.1c75.4,19.8,118.7,46.3,118.7,72.6s-43.3,52.8-118.7,72.6c-78.7,20.7-183.5,32.1-295.1,32.1Z"/>
        <path class="st57" d="M419.2,374c111.1,0,215.4,11.3,293.7,31.9,36.9,9.7,66.9,21.4,86.8,33.7,12.7,7.9,27.8,20.1,27.8,33.5s-15.1,25.7-27.8,33.5c-19.9,12.4-49.9,24-86.8,33.7-78.3,20.6-182.6,31.9-293.7,31.9s-215.4-11.3-293.7-31.9c-36.9-9.7-66.9-21.4-86.8-33.7-12.7-7.9-27.8-20.1-27.8-33.5s15.1-25.7,27.8-33.5c19.9-12.4,49.9-24,86.8-33.7,78.3-20.6,182.6-31.9,293.7-31.9M419.2,363C187.7,363,0,412.3,0,473.2s187.7,110.2,419.2,110.2,419.2-49.3,419.2-110.2-187.7-110.2-419.2-110.2h0Z"/>
      </g>
      <path class="st5" d="M348.9,233.2l-103.2,66.6L117.1,135.6c-20.3-31.5-30-81.1,24.4-116.2h0c54.3-35.1,94.6,3.2,114.9,34.7l92.6,179.1h0Z"/>
      <path class="st19" d="M310.5,219.2l-67.1,43.3-83.6-106.7c-13.2-20.5-19.5-52.7,15.8-75.5h0c35.3-22.8,61.5,2.1,74.7,22.5l60.2,116.4h0Z"/>
      <path class="st5" d="M462.3,233.2l103.2,66.6,128.6-164.2c20.3-31.5,30-81.1-24.3-116.2h0c-54.3-35.1-94.6,3.2-114.9,34.7l-92.6,179.1h0Z"/>
      <path class="st19" d="M495.4,219.2l67.1,43.3,83.6-106.7c13.2-20.5,19.5-52.7-15.8-75.5h0c-35.3-22.8-61.5,2.1-74.7,22.5l-60.2,116.4h0Z"/>
      <g>
        <path class="st58" d="M419.2,461c-133.2,0-227.4-7-227.4-98s102-172,227.4-172,227.4,77.1,227.4,172-94.3,98-227.4,98Z"/>
        <path class="st57" d="M419.2,196.5c122.4,0,221.9,74.7,221.9,166.5s-5.2,37.6-15.8,50.5c-9.8,12-24.5,21-44.8,27.5-41.3,13.4-99.9,14.5-161.3,14.5s-120-1.1-161.3-14.5c-20.3-6.6-35-15.6-44.8-27.5-10.6-12.9-15.8-29.4-15.8-50.5,0-91.8,99.6-166.5,221.9-166.5M419.2,185.5c-128.6,0-232.9,79.4-232.9,177.5s104.3,103.5,232.9,103.5,232.9-5.5,232.9-103.5-104.3-177.5-232.9-177.5h0Z"/>
      </g>
      <path class="st45" d="M313.3,232.9c-43.8,16.7-78,54-89.5,99.6-3.8,15,19.4,21.4,23.1,6.4,9.3-37,37-69.2,72.7-82.9,6-2.3,10.2-8.1,8.4-14.8-1.6-5.8-8.7-10.7-14.8-8.4h0Z"/>
      <path class="st45" d="M225.9,374.6c-1.6,3.5-2.5,6.4-2.7,10.3-.1,2.6.3,5.6,1.4,8,1.3,3,2.6,5.4,5.5,7.2,2.6,1.5,6.4,2.1,9.2,1.2s5.7-2.7,7.2-5.5,2.4-6.4,1.2-9.2c-.4-.9-.6-1.8-.8-2.8l.4,3.2c-.1-1-.1-1.9,0-2.9l-.4,3.2c.1-1,.4-1.9.7-2.8l-1.2,2.9.2-.5c1.4-3,2.1-5.9,1.2-9.2-.8-2.8-2.9-5.8-5.5-7.2-2.8-1.5-6.2-2.2-9.2-1.2-2.8.9-5.9,2.7-7.2,5.5h0Z"/>
      <path class="st57" d="M413.7,558.2l-16.1-13.3c-1-.9-2.3-1.9-3.7-3-14.5-11.6-24.9-20.9-27.6-34-2.8-13.7,6-27,19.6-29.9,11.5-2.4,22.8,3.5,27.8,13.6,5-10.1,16.3-15.9,27.8-13.6,13.7,2.8,22.5,16.2,19.6,29.9-2.7,13.1-13.2,22.4-27.6,34-1.3,1.1-2.6,2.1-3.7,3l-16.1,13.3Z"/>
      <path class="st57" d="M665.2,524.6l-18.6-9.6c-1.2-.6-2.7-1.3-4.2-2.1-16.6-8.3-28.8-15.1-34.2-27.4-5.7-12.8,0-27.7,12.8-33.4,10.7-4.8,23-1.5,30,7.3,2.7-10.9,12.5-19,24.3-19.2,14-.1,25.4,11,25.5,25,.1,13.4-8.1,24.7-19.7,39.1-1.1,1.3-2.1,2.6-2.9,3.7l-12.9,16.5h0Z"/>
      <path class="st57" d="M174.5,527.3l-12.9-16.5c-.8-1.1-1.9-2.3-2.9-3.7-11.6-14.5-19.9-25.7-19.7-39.1.1-14,11.6-25.1,25.5-25,11.8.1,21.6,8.3,24.3,19.2,7-8.8,19.3-12.1,30-7.3,12.8,5.7,18.5,20.6,12.8,33.4-5.5,12.3-17.6,19.1-34.2,27.4-1.5.8-3,1.5-4.2,2.1l-18.6,9.6h0Z"/>
    </g>
  </g>
  <g id="girl">
    <path class="st9" d="M527.7,961.3c5.3-11.3,9.9-24.4,13.6-39.5,17.8-71.6-51.4-134.6-124.2-134.6-72.8,0-138.3,42.9-131.9,116.4s3.7,28.6-.3,39.9c-6.6,18.3,1.2,36.3,8.5,45.3,9.5,11.6,32,33.7,97.5,43,37.2,5.3,70.3-4.7,96.3-21.7"/>
    <path class="st45" d="M310.1,913.8l30.8.7s6.7,2,4.5,23.9c-2.9,27.8.7,27.1.7,27.1l-19.1,9.7s-22,2.2-33.5-20.5l-3.4-21.8,20-19.1Z"/>
    <path class="st9" d="M370,1076s18.4-8,24-8.6,4.9-2.9,0-6.4-31.5-2.4-37.6,4.1"/>
    <path class="st1" d="M523.8,964.1c-6.7-3.8-15.7-1.6-23.5,4.9"/>
    <path class="st9" d="M482.7,1015.2c9.8,5.6,31.2-3,43.3-14.1,12.6-11.5,7.6-31.4-2.2-37"/>
    <path class="st1" d="M482.7,1015.2"/>
    <path class="st1" d="M500.3,969"/>
    <path class="st16" d="M457,1025.3s33.6,88.8,33.6,136.1l-137.7-1.5s-.5-131.6-2.6-135.4c-2.1-3.8,26.6,8.6,55.7,8.9,29.1.3,51-8.1,51-8.1Z"/>
    <path class="st45" d="M461.1,928.1s23.8,19,24.8,25.7c1,6.7-4.9,20.6-5.8,23.8s-33.9,13.8-45.5,9.9c-11.7-3.8-22.7-22.8-22.7-22.8l-3.9-5.9s-5.1-3.9,4.7-37.9,0,0,0,0l34.8-.7,13.8,7.9Z"/>
    <ellipse class="st40" cx="439" cy="954.7" rx="30.8" ry="32.4"/>
    <path class="st29" d="M408.2,954.7c1.3,19.7,15.2,31.5,29.4,32.2s22.8-6.1,28.4-16.5c0,0-10-7.6-26.7-11.8-15.1-3.9-31.1-3.9-31.1-3.9Z"/>
    <ellipse class="st40" cx="329.4" cy="944.4" rx="22.3" ry="30.4"/>
    <path class="st29" d="M306.8,946.7c1.5,15.7,11.8,28.4,22.6,28.4,11,0,21.5-14.6,21.2-21.5,0,0-10.4-7-19.7-6.7s-24.1-.3-24.1-.3Z"/>
    <polygon class="st26" points="346.1 915.1 351.1 919 346.4 918 346.2 921.4 343.5 917.6 346.1 915.1"/>
    <polygon class="st26" points="290.2 951.6 294.4 956.5 295.9 950.1 290.2 951.6"/>
    <path class="st1" d="M413.9,921.3s32.3-11.4,54.2,12.1c21.9,23.5,17.4,21.4,17.9,35.6l-8.4,8.2"/>
    <path class="st1" d="M345.4,917.6s-27.7-25.6-55.4,17.6l2.9,15.5"/>
    <path class="st1" d="M356.4,987.1s-6.1,1-4.3,4.7c1.8,3.7,6.1,3.4,4.3,5s-2.6,1.4-2.7,3.6,4.6,3.5,4.6,3.5"/>
    <line class="st1" x1="363.2" y1="966.3" x2="360.6" y2="966.3"/>
    <polygon class="st26" points="475.3 975.2 473.1 981.4 479.4 979.5 475.3 975.2"/>
    <path class="st26" d="M469.5,992.5"/>
    <ellipse class="st38" cx="438.6" cy="954.8" rx="17.5" ry="11.3" transform="translate(-592.7 1156.2) rotate(-76.4)"/>
    <ellipse class="st38" cx="329.4" cy="944.4" rx="8.8" ry="14.8"/>
    <circle class="st45" cx="451.9" cy="944.4" r="4.9"/>
    <circle class="st45" cx="337.3" cy="932.9" r="4.9"/>
    <polygon class="st26" points="415.3 918.4 409.3 920.4 414.1 921.1 413.2 924.4 417 921.6 415.3 918.4"/>
    <g>
      <g>
        <path class="st45" d="M339.9,1200.4s-7.7,6.5-7.1,6.5,4.7-1.2,5.5.8c.3.7,1,1,2,1.2.7-2.2,1.5-4.6,2.3-7-1.1-.5-2-1-2.8-1.5Z"/>
        <path class="st56" d="M333.5,1230.1c-8.3,17.3,5.8,18.1,5.8,18.1,24,5.9,33-16.2,33-16.2l-.5,4.3,6.4.2s.7-2.7,1.2-6.7c.5-3.4-.8-7.2-1.2-8.3-2.4,2.8-5.1,5.8-8.3,8.8,0,0-1.9.8-4.7,1.7,0,0,0,0,0,0-3.3,2.1-5.9,3.4-5.9,3.4-19.3,7.2-24.3-1.4-25.5-4.3-.2-.6-.3-.9-.3-.9Z"/>
        <path class="st45" d="M333.8,1227.8s-.7,1.4,0,3.2c.7,1.6,2.4,3.3,6.8,4.6,6.5,1.8,18-1.4,24.4-3.6,0,0,0,0,0,0,1.3-.8,2.6-1.7,4-2.6l-5.4,2.2s-20-9.2-29.4-5.1c-.3.9-.5,1.4-.5,1.4Z"/>
        <path class="st56" d="M335.6,1220.7l-1.3,5.7s0,0,.1,0c.5-1.2,1.2-3.2,2.1-5.7-.3,0-.6,0-.8,0Z"/>
        <path class="st56" d="M336.4,1220.6c-.9,2.5-1.6,4.5-2.1,5.7,9.3-4.1,29.4,5.1,29.4,5.1l5.4-2.2c.3-.2.6-.4.8-.6-2.9-1.1-22.8-8.8-33.6-8.1Z"/>
        <path class="st45" d="M336.4,1220.6c10.7-.7,30.7,7,33.6,8.1,3-2.2,6.1-4.8,8.1-7.5,0,0,0,0,.1.3.9-1,1.7-2,2.5-3-.2-.1-.4-.3-.6-.4-2.7-2.3-5.6-3.3-6.6-2.3-1,1-6,1.9-6.8-.2-.8-2.1-1.2-4.9-5-4.5-3.7.4-8.3,2.1-9.2,0-.9-2.1-3.4-4.1-5.9-3.1-1.6.7-4.3,1.2-6.2,1-1.5,4.5-2.9,8.6-4.1,11.8Z"/>
        <path class="st45" d="M340.5,1208.9c1.9.3,4.6-.3,6.2-1,2.5-1,5,1,5.9,3.1.9,2.1,5.5.4,9.2,0,3.7-.4,4.1,2.5,5,4.5.8,2.1,5.8,1.2,6.8.2,1-1,3.9,0,6.6,2.3s.4.3.6.4c1.5-1.9,2.9-3.8,4.1-5.6l-.3-1.3s-29.4-4-41.7-9.7c-.8,2.4-1.6,4.8-2.3,7Z"/>
        <path class="st44" d="M353.3,1163.4c-1.7,10.2-6.3,25.4-10.6,38.5,12.3,5.6,41.7,9.7,41.7,9.7l.3,1.3c11.8-17.6,9.8-28.9,9.8-28.9l-1-2.8,26.3.9c.8,4.6-.9,16-3.1,27.3,1-.8,1.7-1.4,1.7-1.4,9.2,6.1,41.1,10.7,44.3,11.1,11.4-13,24.3-32,27.7-54.2l-137.1-1.5Z"/>
        <path class="st44" d="M354,1158.6l-1.2,4.8h.6c.3-1.8.5-3.4.6-4.8Z"/>
        <path class="st56" d="M369.1,1229.3c-1.4,1-2.7,1.9-4,2.6,2.9-1,4.7-1.7,4.7-1.7,3.1-3,5.9-6,8.3-8.8,0-.2-.1-.3-.1-.3-2,2.7-5.1,5.3-8.1,7.5.2,0,.3.1.3.1l-1.2.5Z"/>
        <path class="st56" d="M369.1,1229.3l1.2-.5s-.1,0-.3-.1c-.3.2-.6.4-.8.6Z"/>
        <path class="st45" d="M384.7,1212.8c-1.2,1.8-2.6,3.7-4.1,5.6,2.6,1.7,5.4,1.2,5.4,1.2l-1.3-6.8Z"/>
        <path class="st56" d="M410.4,1237c-7.7,17.6,6.4,17.9,6.4,17.9,24.1,5.2,32.4-17.2,32.4-17.2l-.4,4.3h6.4s.6-2.8,1-6.8c.3-3.1-.7-6.4-1.3-7.8-6.6,6.5-11.5,10.2-11.5,10.2,0,0-2.3,1.4-5.6,3,0,0,0,0,0,0-.9.6-1.5.9-1.5.9-2,.8-3.8,1.4-5.5,1.9-7.3,2.3-15.8,3-19.5-4.2h0c-.6-1.3-.8-2.1-.8-2.1Z"/>
        <path class="st44" d="M410.9,1236.2c-.2.9-.3,1.4-.3,1.4.2.5.4,1,.6,1.4h0c1.8,3.2,6.8,8,19.5,4.4,2.5-.8,4.9-1.8,6.9-2.8,0,0,0,0,0,0,1.8-1.1,5.1-3.1,8.4-5.6h0c-.8.5-1.6,1.1-2.3,1.2,0,0-26.3,16.7-32.9,0h0Z"/>
        <path class="st45" d="M410.9,1236.2h0c6.5,16.7,32.9,0,32.9,0,0,0-22.2-10.1-31.4-5.9l1.1-4.7h0c-1.1,4.8-2,8.6-2.5,10.6Z"/>
        <path class="st45" d="M416.8,1209.4c-2.2,1.9-5.8,5.1-5.4,5.1s2.9-.6,4.4-.2c.3-1.6.7-3.3,1-4.9Z"/>
        <path class="st56" d="M413.5,1225.6l-1.1,4.7c9.3-4.2,31.4,5.9,31.4,5.9l4.6-3.5s-23.4-9.4-34.8-8.2l-.2,1.1Z"/>
        <path class="st45" d="M413.4,1225.6h0s.2-1,.2-1c11.3-1.3,34.8,8.2,34.8,8.2,0,0-1.1,1.2-2.4,2.2h0c3.2-2.3,6.4-5.2,8.5-8.2,0,0,.1.2.3.7.8-.8,1.7-1.7,2.6-2.6-2.3-1.7-4.6-2.3-5.5-1.4-1,1-6,1.9-6.8-.2-.8-2.1-1.2-5-4.9-4.5s-8.3,2.1-9.2,0c-.9-2.1-3.4-4.1-5.9-3.1-2.5,1-7.4,1.8-8.3-.2-.2-.5-.6-.8-1.1-1-.8,4-1.7,7.9-2.4,11.2Z"/>
        <path class="st45" d="M416.8,1209.4c-.3,1.7-.7,3.3-1,4.9.5.2.9.5,1.1,1,.8,2,5.8,1.2,8.3.2,2.5-1,5,1,5.9,3.1.9,2.1,5.5.4,9.2,0s4.1,2.5,4.9,4.5c.8,2.1,5.8,1.2,6.8.2.9-.9,3.2-.2,5.5,1.4,1.7-1.7,3.4-3.6,5.2-5.6-3.2-.5-35.1-5-44.3-11.1,0,0-.7.6-1.7,1.4Z"/>
        <path class="st56" d="M411.3,1239.1c3.7,7.2,12.2,6.6,19.5,4.2-12.8,3.7-17.7-1.2-19.5-4.2Z"/>
        <path class="st56" d="M446.2,1235c-3.3,2.5-6.5,4.5-8.4,5.6,3.4-1.6,5.6-3,5.6-3,0,0,4.9-3.6,11.5-10.2-.2-.4-.3-.7-.3-.7-2.1,3-5.3,5.9-8.5,8.3Z"/>
        <path class="st44" d="M448.5,1232.7l-4.6,3.5c.7-.2,1.5-.7,2.3-1.3,1.3-1,2.4-2.2,2.4-2.2Z"/>
        <path class="st45" d="M457.5,1224.8c.4.3.7.5,1.1.8,2.7,2.3,6,1.6,6,1.6l-1.6-8.1s0,0-.3,0c-1.8,2-3.5,3.9-5.2,5.6Z"/>
      </g>
      <g>
        <path class="st1" d="M342.8,1201.9c4.3-13,8.8-28.2,10.6-38.5.3-1.8.5-3.4.6-4.8"/>
        <path class="st1" d="M336.4,1220.6c1.1-3.2,2.5-7.2,4.1-11.8"/>
        <path class="st1" d="M365.1,1232c-6.5,2.2-18,5.4-24.4,3.6-4.4-1.3-6.2-3-6.8-4.6-.7-1.7,0-3.2,0-3.2,0,0,.2-.5.5-1.4"/>
        <path class="st1" d="M380.7,1218.4c-.8,1-1.6,2-2.5,3"/>
        <path class="st1" d="M416.8,1209.4c2.2-11.3,3.9-22.8,3.1-27.3l-26.3-.9,1,2.8s2,11.3-9.8,28.9"/>
        <path class="st1" d="M411.2,1239c-.2-.4-.4-.9-.6-1.4,0,0,.1-.5.3-1.4.5-1.9,1.4-5.8,2.5-10.6.8-3.4,1.6-7.2,2.4-11.2"/>
        <path class="st1" d="M437.8,1240.6c-2,.9-4.4,2-6.9,2.8"/>
        <path class="st1" d="M457.5,1224.8c-.9.9-1.8,1.8-2.6,2.6"/>
        <path class="st1" d="M352.8,1163.4h.6s137.1,1.5,137.1,1.5c-3.4,22.2-16.3,41.2-27.7,54.2"/>
        <path class="st1" d="M443.9,1236.2s-26.3,16.7-32.9,0"/>
        <path class="st1" d="M448.5,1232.7s-23.4-9.4-34.8-8.2l-.2,1.1-1.1,4.7c9.3-4.2,31.4,5.9,31.4,5.9"/>
        <path class="st1" d="M370,1228.7c-2.9-1.1-22.8-8.8-33.6-8.1-.3,0-.6,0-.8,0l-1.3,5.7s0,0,.1,0c9.3-4.1,29.4,5.1,29.4,5.1l5.4-2.2"/>
        <path class="st1" d="M446.2,1235c3.2-2.4,6.4-5.3,8.5-8.3,0,0,.1.2.3.7.5,1.4,1.6,4.7,1.3,7.8-.4,4-1,6.8-1,6.8h-6.4l.4-4.3s-8.3,22.4-32.4,17.2c0,0-14.1-.3-6.4-17.9,0,0,.2.8.8,1.9h0c1.8,3.2,6.8,8,19.5,4.4,1.7-.5,3.5-1.1,5.5-1.9,0,0,.6-.3,1.5-.9,0,0,0,0,0,0,1.8-1.1,5.1-3.1,8.4-5.6Z"/>
        <path class="st1" d="M365.2,1232c1.3-.8,2.6-1.7,4-2.6.3-.2.6-.4.8-.6,3-2.2,6.1-4.8,8.1-7.5,0,0,0,0,.1.3.4,1,1.7,4.9,1.2,8.3-.6,4-1.2,6.7-1.2,6.7l-6.4-.2.5-4.3s-9,22.1-33,16.2c0,0-14.1-.8-5.8-18.1,0,0,0,.3.3.9,1.1,2.9,6.2,11.5,25.5,4.3,0,0,2.6-1.3,5.9-3.4"/>
        <path class="st1" d="M416.8,1209.4c1-.8,1.7-1.4,1.7-1.4,9.2,6.1,41.1,10.7,44.3,11.1.2,0,.3,0,.3,0l1.6,8.1s-3.3.6-6-1.6c-.4-.3-.7-.6-1.1-.8-2.3-1.7-4.6-2.3-5.5-1.4-1,1-6,1.9-6.8-.2-.8-2.1-1.2-5-4.9-4.5s-8.3,2.1-9.2,0c-.9-2.1-3.4-4.1-5.9-3.1-2.5,1-7.4,1.8-8.3-.2-.2-.5-.6-.8-1.1-1-1.5-.5-3.9.2-4.4.2s3.2-3.2,5.4-5.1Z"/>
        <path class="st1" d="M340.5,1208.9c-1-.1-1.8-.5-2-1.2-.8-2-4.9-.8-5.5-.8s7.1-6.5,7.1-6.5c.8.5,1.7,1,2.8,1.5,12.3,5.6,41.7,9.7,41.7,9.7l.3,1.3,1.3,6.8s-2.9.5-5.4-1.2c-.2-.1-.4-.3-.6-.4-2.7-2.3-5.6-3.3-6.6-2.3-1,1-6,1.9-6.8-.2-.8-2.1-1.2-4.9-5-4.5-3.7.4-8.3,2.1-9.2,0-.9-2.1-3.4-4.1-5.9-3.1-1.6.7-4.3,1.2-6.2,1Z"/>
        <path class="st1" d="M448.5,1232.7s-1.1,1.2-2.4,2.2c-.8.6-1.6,1.1-2.3,1.3"/>
      </g>
    </g>
    <g>
      <path class="st46" d="M367.4,1036.5c.8-3.1,3.9-4.9,7.1-4.1h0c4.9,1.2,7.9,6,6.7,10.6l-6.1,12.9-10-2.3,2.3-17ZM381.3,1042.4l-5.7,12.6c19-1.9,26.7,12.4,32.6,12.9.4,0,.8,0,1.1,0,5.9-1.3,10.5-27.7,6-30.5-4.4-2.8-34.1.6-34.1.6v4.4ZM367.6,1034.8s-18.5-14.2-24.4-13.3-12.8,24.3-11.2,28.6,15.4-2.3,33.2,0l2.4-15.3Z"/>
      <g class="st60">
        <g>
          <rect class="st46" x="324.4" y="1016.7" width="97.4" height="55.7"/>
          <g class="st48">
            <use transform="translate(421.8 1016.7) rotate(-180) scale(0 0)" xlink:href="#image"/>
          </g>
          <rect class="st37" x="324.4" y="1016.7" width="97.4" height="55.7"/>
        </g>
      </g>
      <path class="st37" d="M367.4,1036.5c.8-3.1,3.9-4.9,7.1-4.1h0c4.9,1.2,7.9,6,6.7,10.6l-6.1,12.9-10-2.3,2.3-17ZM381.3,1042.4l-5.7,12.6c19-1.9,26.7,12.4,32.6,12.9.4,0,.8,0,1.1,0,5.9-1.3,10.5-27.7,6-30.5-4.4-2.8-34.1.6-34.1.6v4.4ZM367.6,1034.8s-18.5-14.2-24.4-13.3-12.8,24.3-11.2,28.6,15.4-2.3,33.2,0l2.4-15.3Z"/>
    </g>
    <path class="st16" d="M403.3,1070.5c-2.6.4-5.5.5-8.4.1l-3.5,30.4s40.8,13.2,59.9,6.7c19.1-6.5,31.5-32.6,31.5-32.6,0,0-.4.6,0,0,9.4-31-8.7-40.8-9.3-41.1.5-.6-18.7-11-31.2.8-8.1,7.7-18.9,32.4-39,35.7"/>
    <path class="st1" d="M466.4,1050.4"/>
    <path class="st28" d="M354.9,1120.1c70.5,10.1,125.1-21.8,125.1-21.8l64.5,59.4s-5.1,22-33.1,23.5c-14.2.7-35.1-6.1-43.4,4-8.3,10.2-23.3,11.3-33.7,4.9-10.4-6.4-29.1,2.2-44.3-6.2-17.1-9.4-42.3,17.5-53.5,8.1-11.2-9.4-29.5-6.9-29.5-6.9l48-65Z"/>
    <path class="st28" d="M480,1098.3l53.9,34.2s-1.3,21.1-15.7,19.6c-14.4-1.5-39.3-10.5-38.3,4.1,1,14.5-10.1,21.6-19.8,18.1-9.7-3.5-23.3-21.6-38.2-9.8-14.9,11.8-28.1,15.1-34.6,10.7-6.5-4.4-11.7-22.2-20.8-14.1-9.1,8.2-22.2,11.7-30.9,6.7-8.8-5-15.2-6.7-15.2-6.7l34.3-41s66.4,9.9,125.4-21.8Z"/>
    <g>
      <path class="st46" d="M396.1,1063.5l13.6,23.2s-13.2,14.9-14.5,16.1c0,0-14.4-2.4-19.5-2.2-.9,0-1.6-.7-1.4-1.6,1.2-7.9,5.3-36.3,1.8-43.1l20,7.6Z"/>
      <g class="st51">
        <use transform="translate(435.6 1043.1) rotate(-180) scale(0 0)" xlink:href="#image"/>
      </g>
      <path class="st37" d="M396.1,1063.5l13.6,23.2s-13.2,14.9-14.5,16.1c0,0-14.4-2.4-19.5-2.2-.9,0-1.6-.7-1.4-1.6,1.2-7.9,5.3-36.3,1.8-43.1l20,7.6Z"/>
    </g>
    <path class="st16" d="M326.2,1092.3s11.8,23.6,26.2,17.4v-35.1c.1,0-26.2,17.7-26.2,17.7"/>
    <g>
      <path class="st46" d="M342.2,1052.2l-20.4,17.6s14.5,21.4,15.4,22.9c0,0,22,3.3,22.4,5.1,0,0-7.4-24.1,5.4-47.7l-22.8,2.1Z"/>
      <g class="st49">
        <use transform="translate(311.5 1020) rotate(19) scale(0)" xlink:href="#image"/>
      </g>
      <path class="st37" d="M342.2,1052.2l-20.4,17.6s14.5,21.4,15.4,22.9c0,0,22,3.3,22.4,5.1,0,0-7.4-24.1,5.4-47.7l-22.8,2.1Z"/>
    </g>
    <path class="st34" d="M376.7,1055.7s18.1,10.6,29.8,12c0,0-5.6-3.2-7-5s-13.3-9.6-22.9-7Z"/>
    <path class="st34" d="M365,1050.8s-19.1,3.7-30.5.6c0,0,4.7-1.4,6.7-2.5s15.9-4,23.8,1.9Z"/>
    <ellipse class="st42" cx="461.2" cy="992.4" rx="6.7" ry="16.4" transform="translate(-570.8 1356.3) rotate(-84.5)"/>
    <ellipse class="st42" cx="296.1" cy="974" rx="6.7" ry="16.4" transform="translate(-701.7 1175.4) rotate(-84.5)"/>
    <path class="st4" d="M557.2,910.9c17.2,7.6,76.2,76.7,60.6,117.8-15.6,41.1.7,46.7,3.7,56.7,3.2,10.9-6.5,23.5-21.6,30-13,5.6-4.4,27.5,9.6,29.3,0,0-22.7,15.6-46.9-14.4-9.1-11.3,20.6-22,19.7-39.5s-31.1-55.9-26.7-84.1c4.4-28.1.9-50.8-10.8-57.7"/>
    <path class="st3" d="M273.6,895.1c-17.2,7.6-76.2,76.7-60.6,117.8,15.6,41.1-.7,46.7-3.7,56.7-3.2,10.9,6.5,23.5,21.6,30,13,5.6-.4,26.2-14.3,28.1,0,0,41,23.9,51.7-13.2,5.2-18.1-20.6-22-19.7-39.5.9-17.5,31.1-55.9,26.7-84.1-4.4-28.1-.9-50.8,10.8-57.7"/>
    <path class="st21" d="M255.9,891.8c0,15.6,6.5,25.8,22.1,25.8,15.6,0,7.3-13,7.3-28.6,0-15.6,14.4-25.4-1.2-25.4s-28.2,12.6-28.2,28.2Z"/>
    <path class="st55" d="M352.7,904.2c-18.8-3-38.5-2.5-56.9,2.8-1.3.4-4.4,1.5-5.7,1.9,2.1-1,5.2-2.5,7.4-3.3,13.9-5.5,28.9-8,43.8-8.5,4.2-.1,8.2-.1,12.4.2,0,0-.9,6.9-.9,6.9h0Z"/>
    <path class="st55" d="M433.7,904c19.6,5.2,38.9,14.3,54.1,27.7,0,0,3,2.7,3,2.7-1.9-1.4-4.6-3.5-6.5-4.7-6.6-4.4-13.9-8-21.3-10.8-7.4-2.9-15-5.1-22.8-6.8-2.5-.5-5.2-1-7.6-1.3l1.2-6.9h0Z"/>
    <path class="st20" d="M518.2,962.8s3.2,5.6-10.1,24.8c-13.3,19.2-22.1,40.4-21,52.6s-17.3,19.6-17.3,19.6c0,0,9.4-12.2,7.7-26.2s4.2-50.5,13.6-66.3c9.4-15.8,5.1-47.9,2.6-57.5l-3.4,28.6-10-6.4s9.1-41.3,2.4-51.3l-10,46.5s-28.2-17.8-42.9-16.3l4.7-51.2s-9.6,35.7-13.1,49.5c0,0-13-1.8-20.2-1.5s5.8-56.2,7.1-64.4c1.3-8.2-36.4,51.6-38.4,62.6,0,0-43.4-7.8-56.3-1.4,0,0,10.4-53.1,19.8-79.3l-29.6,77.5-5.7,1.4,1.7-48.4c-10.5.1-12.5,105.5-18.9,116.1-7.9,13-6.5,50.6,1.9,59.9,8.4,9.3,0,22.6,0,22.6,0,0,.6-13.2-9.4-16-10-2.8-20.1-40.9-18.4-66.9,1.5-22.5,19.3-71.4,27.3-108.6,0,0,2.6-59,69.4-79.8,55.7-17.4,106.7-23.6,156.4,23.8,30.7,29.4,49.5,82.1,44.9,114.4-.4,2.9-1,5.9-1.6,8.8-6.4,29.4-18.7,49.6-18.7,49.6l-14.5-16.7Z"/>
    <circle class="st21" cx="550.5" cy="925.4" r="28.2"/>
    <path class="st9" d="M387.7,1060.7c3.6-1,7.4-1.2,11-.4,9.4,2,27.6,6.3,27.8,9.5s-7.7,3.4-9.6,6.3c0,0,11.5,15.3,11.8,25.7.3,10.5-9.7,23.3-43.1-5.9,0,0,.3,2.2-14.6-19.1l16.8-16.1Z"/>
    <path class="st9" d="M356,1056.2c-2.9-2.5-6.2-4.1-9.8-4.9-9.4-2.1-27.7-5.7-29.2-2.9s5.6,6.3,6.2,9.7c0,0-16.8,9.1-21.4,18.5-4.6,9.4-.9,25.3,41.6,12.5,0,0,.2,1.3,23.9-12.9l-11.2-20.1Z"/>
    <path class="st1" d="M418.9,1074.4s-10.2,2.9-11.2,4.6"/>
    <path class="st1" d="M320.7,1054.7s8.1,6.9,8.2,8.9"/>
    <path class="st11" d="M527.7,961.3c5.3-11.3,9.9-24.4,13.6-39.5,17.8-71.6-51.4-134.6-124.2-134.6-72.8,0-138.3,42.9-131.9,116.4s3.7,28.6-.3,39.9c-6.6,18.3,1.2,36.3,8.5,45.3,9.5,11.6,32,33.7,97.5,43,37.2,5.3,70.3-4.7,96.3-21.7"/>
    <path class="st11" d="M370,1076s18.4-8,24-8.6,4.9-2.9,0-6.4-31.5-2.4-37.6,4.1"/>
    <path class="st14" d="M523.8,964.1c-6.7-3.8-15.7-1.6-23.5,4.9"/>
    <path class="st11" d="M482.7,1015.2c9.8,5.6,31.2-3,43.3-14.1,12.6-11.5,7.6-31.4-2.2-37"/>
    <path class="st14" d="M482.7,1015.2"/>
    <path class="st14" d="M500.3,969"/>
    <path class="st24" d="M457,1025.3s33.6,88.8,33.6,136.1l-137.7-1.5s-.5-131.6-2.6-135.4c-2.1-3.8,26.6,8.6,55.7,8.9,29.1.3,51-8.1,51-8.1Z"/>
    <path class="st45" d="M461.1,928.1s23.8,19,24.8,25.7c1,6.7-4.9,20.6-5.8,23.8s-33.9,13.8-45.5,9.9c-11.7-3.8-22.7-22.8-22.7-22.8l-3.9-5.9s-5.1-3.9,4.7-37.9,0,0,0,0l34.8-.7,13.8,7.9Z"/>
    <ellipse class="st35" cx="439" cy="954.7" rx="30.8" ry="32.4"/>
    <path class="st30" d="M408.2,954.7c1.3,19.7,15.2,31.5,29.4,32.2s22.8-6.1,28.4-16.5c0,0-10-7.6-26.7-11.8-15.1-3.9-31.1-3.9-31.1-3.9Z"/>
    <path class="st45" d="M310.1,913.8l30.8.7s6.7,2,4.5,23.9c-2.9,27.8.7,27.1.7,27.1l-19.1,9.7s-22,2.2-33.5-20.5l-3.4-21.8,20-19.1Z"/>
    <ellipse class="st35" cx="329.4" cy="944.4" rx="22.3" ry="30.4"/>
    <path class="st30" d="M306.8,946.7c1.5,15.7,11.8,28.4,22.6,28.4,11,0,21.5-14.6,21.2-21.5,0,0-10.4-7-19.7-6.7s-24.1-.3-24.1-.3Z"/>
    <polygon class="st31" points="346.1 915.1 351.1 919 346.4 918 346.2 921.4 343.5 917.6 346.1 915.1"/>
    <polygon class="st25" points="290.2 951.6 294.4 956.5 295.9 950.1 290.2 951.6"/>
    <path class="st2" d="M413.9,921.3s32.3-11.4,54.2,12.1c21.9,23.5,17.4,21.4,17.9,35.6l-8.4,8.2"/>
    <path class="st2" d="M345.4,917.6s-27.7-25.6-55.4,17.6l2.9,15.5"/>
    <path class="st27" d="M356.4,987.1s-6.1,1-4.3,4.7c1.8,3.7,6.1,3.4,4.3,5s-2.6,1.4-2.7,3.6,4.6,3.5,4.6,3.5"/>
    <line class="st27" x1="363.2" y1="966.3" x2="360.6" y2="966.3"/>
    <polygon class="st25" points="475.3 975.2 473.1 981.4 479.4 979.5 475.3 975.2"/>
    <path class="st25" d="M469.5,992.5"/>
    <polygon class="st31" points="415.3 918.4 409.3 920.4 414.1 921.1 413.2 924.4 417 921.6 415.3 918.4"/>
    <ellipse class="st0" cx="438.6" cy="954.8" rx="17.5" ry="11.3" transform="translate(-592.7 1156.2) rotate(-76.4)"/>
    <ellipse class="st0" cx="329.4" cy="944.4" rx="8.8" ry="14.8"/>
    <circle class="st45" cx="451.9" cy="944.4" r="4.9"/>
    <circle class="st45" cx="337.3" cy="932.9" r="4.9"/>
    <g>
      <g>
        <path class="st45" d="M339.9,1200.4s-7.7,6.5-7.1,6.5,4.7-1.2,5.5.8c.3.7,1,1,2,1.2.7-2.2,1.5-4.6,2.3-7-1.1-.5-2-1-2.8-1.5Z"/>
        <path class="st56" d="M333.5,1230.1c-8.3,17.3,5.8,18.1,5.8,18.1,24,5.9,33-16.2,33-16.2l-.5,4.3,6.4.2s.7-2.7,1.2-6.7c.5-3.4-.8-7.2-1.2-8.3-2.4,2.8-5.1,5.8-8.3,8.8,0,0-1.9.8-4.7,1.7,0,0,0,0,0,0-3.3,2.1-5.9,3.4-5.9,3.4-19.3,7.2-24.3-1.4-25.5-4.3-.2-.6-.3-.9-.3-.9Z"/>
        <path class="st45" d="M333.8,1227.8s-.7,1.4,0,3.2c.7,1.6,2.4,3.3,6.8,4.6,6.5,1.8,18-1.4,24.4-3.6,0,0,0,0,0,0,1.3-.8,2.6-1.7,4-2.6l-5.4,2.2s-20-9.2-29.4-5.1c-.3.9-.5,1.4-.5,1.4Z"/>
        <path class="st56" d="M335.6,1220.7l-1.3,5.7s0,0,.1,0c.5-1.2,1.2-3.2,2.1-5.7-.3,0-.6,0-.8,0Z"/>
        <path class="st56" d="M336.4,1220.6c-.9,2.5-1.6,4.5-2.1,5.7,9.3-4.1,29.4,5.1,29.4,5.1l5.4-2.2c.3-.2.6-.4.8-.6-2.9-1.1-22.8-8.8-33.6-8.1Z"/>
        <path class="st45" d="M336.4,1220.6c10.7-.7,30.7,7,33.6,8.1,3-2.2,6.1-4.8,8.1-7.5,0,0,0,0,.1.3.9-1,1.7-2,2.5-3-.2-.1-.4-.3-.6-.4-2.7-2.3-5.6-3.3-6.6-2.3-1,1-6,1.9-6.8-.2-.8-2.1-1.2-4.9-5-4.5-3.7.4-8.3,2.1-9.2,0-.9-2.1-3.4-4.1-5.9-3.1-1.6.7-4.3,1.2-6.2,1-1.5,4.5-2.9,8.6-4.1,11.8Z"/>
        <path class="st45" d="M340.5,1208.9c1.9.3,4.6-.3,6.2-1,2.5-1,5,1,5.9,3.1.9,2.1,5.5.4,9.2,0,3.7-.4,4.1,2.5,5,4.5.8,2.1,5.8,1.2,6.8.2,1-1,3.9,0,6.6,2.3s.4.3.6.4c1.5-1.9,2.9-3.8,4.1-5.6l-.3-1.3s-29.4-4-41.7-9.7c-.8,2.4-1.6,4.8-2.3,7Z"/>
        <path class="st44" d="M353.3,1163.4c-1.7,10.2-6.3,25.4-10.6,38.5,12.3,5.6,41.7,9.7,41.7,9.7l.3,1.3c11.8-17.6,9.8-28.9,9.8-28.9l-1-2.8,26.3.9c.8,4.6-.9,16-3.1,27.3,1-.8,1.7-1.4,1.7-1.4,9.2,6.1,41.1,10.7,44.3,11.1,11.4-13,24.3-32,27.7-54.2l-137.1-1.5Z"/>
        <path class="st44" d="M354,1158.6l-1.2,4.8h.6c.3-1.8.5-3.4.6-4.8Z"/>
        <path class="st56" d="M369.1,1229.3c-1.4,1-2.7,1.9-4,2.6,2.9-1,4.7-1.7,4.7-1.7,3.1-3,5.9-6,8.3-8.8,0-.2-.1-.3-.1-.3-2,2.7-5.1,5.3-8.1,7.5.2,0,.3.1.3.1l-1.2.5Z"/>
        <path class="st56" d="M369.1,1229.3l1.2-.5s-.1,0-.3-.1c-.3.2-.6.4-.8.6Z"/>
        <path class="st45" d="M384.7,1212.8c-1.2,1.8-2.6,3.7-4.1,5.6,2.6,1.7,5.4,1.2,5.4,1.2l-1.3-6.8Z"/>
        <path class="st56" d="M410.4,1237c-7.7,17.6,6.4,17.9,6.4,17.9,24.1,5.2,32.4-17.2,32.4-17.2l-.4,4.3h6.4s.6-2.8,1-6.8c.3-3.1-.7-6.4-1.3-7.8-6.6,6.5-11.5,10.2-11.5,10.2,0,0-2.3,1.4-5.6,3,0,0,0,0,0,0-.9.6-1.5.9-1.5.9-2,.8-3.8,1.4-5.5,1.9-7.3,2.3-15.8,3-19.5-4.2h0c-.6-1.3-.8-2.1-.8-2.1Z"/>
        <path class="st44" d="M410.9,1236.2c-.2.9-.3,1.4-.3,1.4.2.5.4,1,.6,1.4h0c1.8,3.2,6.8,8,19.5,4.4,2.5-.8,4.9-1.8,6.9-2.8,0,0,0,0,0,0,1.8-1.1,5.1-3.1,8.4-5.6h0c-.8.5-1.6,1.1-2.3,1.2,0,0-26.3,16.7-32.9,0h0Z"/>
        <path class="st45" d="M410.9,1236.2h0c6.5,16.7,32.9,0,32.9,0,0,0-22.2-10.1-31.4-5.9l1.1-4.7h0c-1.1,4.8-2,8.6-2.5,10.6Z"/>
        <path class="st45" d="M416.8,1209.4c-2.2,1.9-5.8,5.1-5.4,5.1s2.9-.6,4.4-.2c.3-1.6.7-3.3,1-4.9Z"/>
        <path class="st56" d="M413.5,1225.6l-1.1,4.7c9.3-4.2,31.4,5.9,31.4,5.9l4.6-3.5s-23.4-9.4-34.8-8.2l-.2,1.1Z"/>
        <path class="st45" d="M413.4,1225.6h0s.2-1,.2-1c11.3-1.3,34.8,8.2,34.8,8.2,0,0-1.1,1.2-2.4,2.2h0c3.2-2.3,6.4-5.2,8.5-8.2,0,0,.1.2.3.7.8-.8,1.7-1.7,2.6-2.6-2.3-1.7-4.6-2.3-5.5-1.4-1,1-6,1.9-6.8-.2-.8-2.1-1.2-5-4.9-4.5s-8.3,2.1-9.2,0c-.9-2.1-3.4-4.1-5.9-3.1-2.5,1-7.4,1.8-8.3-.2-.2-.5-.6-.8-1.1-1-.8,4-1.7,7.9-2.4,11.2Z"/>
        <path class="st45" d="M416.8,1209.4c-.3,1.7-.7,3.3-1,4.9.5.2.9.5,1.1,1,.8,2,5.8,1.2,8.3.2,2.5-1,5,1,5.9,3.1.9,2.1,5.5.4,9.2,0s4.1,2.5,4.9,4.5c.8,2.1,5.8,1.2,6.8.2.9-.9,3.2-.2,5.5,1.4,1.7-1.7,3.4-3.6,5.2-5.6-3.2-.5-35.1-5-44.3-11.1,0,0-.7.6-1.7,1.4Z"/>
        <path class="st56" d="M411.3,1239.1c3.7,7.2,12.2,6.6,19.5,4.2-12.8,3.7-17.7-1.2-19.5-4.2Z"/>
        <path class="st56" d="M446.2,1235c-3.3,2.5-6.5,4.5-8.4,5.6,3.4-1.6,5.6-3,5.6-3,0,0,4.9-3.6,11.5-10.2-.2-.4-.3-.7-.3-.7-2.1,3-5.3,5.9-8.5,8.3Z"/>
        <path class="st44" d="M448.5,1232.7l-4.6,3.5c.7-.2,1.5-.7,2.3-1.3,1.3-1,2.4-2.2,2.4-2.2Z"/>
        <path class="st45" d="M457.5,1224.8c.4.3.7.5,1.1.8,2.7,2.3,6,1.6,6,1.6l-1.6-8.1s0,0-.3,0c-1.8,2-3.5,3.9-5.2,5.6Z"/>
      </g>
      <g>
        <path class="st14" d="M342.8,1201.9c4.3-13,8.8-28.2,10.6-38.5.3-1.8.5-3.4.6-4.8"/>
        <path class="st14" d="M336.4,1220.6c1.1-3.2,2.5-7.2,4.1-11.8"/>
        <path class="st14" d="M333.9,1231c-.7-1.7,0-3.2,0-3.2,0,0,.2-.5.5-1.4"/>
        <path class="st27" d="M365.1,1232c-6.5,2.2-18,5.4-24.4,3.6-4.4-1.3-6.2-3-6.8-4.6"/>
        <path class="st14" d="M380.7,1218.4c-.8,1-1.6,2-2.5,3"/>
        <path class="st14" d="M416.8,1209.4c2.2-11.3,3.9-22.8,3.1-27.3l-26.3-.9,1,2.8s2,11.3-9.8,28.9"/>
        <path class="st14" d="M411.2,1239c-.2-.4-.4-.9-.6-1.4,0,0,.1-.5.3-1.4.5-1.9,1.4-5.8,2.5-10.6.8-3.4,1.6-7.2,2.4-11.2"/>
        <path class="st14" d="M437.8,1240.6c-2,.9-4.4,2-6.9,2.8"/>
        <path class="st14" d="M457.5,1224.8c-.9.9-1.8,1.8-2.6,2.6"/>
        <path class="st14" d="M352.8,1163.4h.6s137.1,1.5,137.1,1.5c-3.4,22.2-16.3,41.2-27.7,54.2"/>
        <path class="st27" d="M443.9,1236.2s-26.3,16.7-32.9,0"/>
        <path class="st27" d="M448.5,1232.7s-23.4-9.4-34.8-8.2l-.2,1.1-1.1,4.7c9.3-4.2,31.4,5.9,31.4,5.9"/>
        <path class="st27" d="M370,1228.7c-2.9-1.1-22.8-8.8-33.6-8.1-.3,0-.6,0-.8,0l-1.3,5.7s0,0,.1,0c9.3-4.1,29.4,5.1,29.4,5.1l5.4-2.2"/>
        <path class="st27" d="M446.2,1235c3.2-2.4,6.4-5.3,8.5-8.3,0,0,.1.2.3.7.5,1.4,1.6,4.7,1.3,7.8-.4,4-1,6.8-1,6.8h-6.4l.4-4.3s-8.3,22.4-32.4,17.2c0,0-14.1-.3-6.4-17.9,0,0,.2.8.8,1.9h0c1.8,3.2,6.8,8,19.5,4.4,1.7-.5,3.5-1.1,5.5-1.9,0,0,.6-.3,1.5-.9,0,0,0,0,0,0,1.8-1.1,5.1-3.1,8.4-5.6Z"/>
        <path class="st27" d="M365.2,1232c1.3-.8,2.6-1.7,4-2.6.3-.2.6-.4.8-.6,3-2.2,6.1-4.8,8.1-7.5,0,0,0,0,.1.3.4,1,1.7,4.9,1.2,8.3-.6,4-1.2,6.7-1.2,6.7l-6.4-.2.5-4.3s-9,22.1-33,16.2c0,0-14.1-.8-5.8-18.1,0,0,0,.3.3.9,1.1,2.9,6.2,11.5,25.5,4.3,0,0,2.6-1.3,5.9-3.4"/>
        <path class="st27" d="M416.8,1209.4c1-.8,1.7-1.4,1.7-1.4,9.2,6.1,41.1,10.7,44.3,11.1.2,0,.3,0,.3,0l1.6,8.1s-3.3.6-6-1.6c-.4-.3-.7-.6-1.1-.8-2.3-1.7-4.6-2.3-5.5-1.4-1,1-6,1.9-6.8-.2-.8-2.1-1.2-5-4.9-4.5s-8.3,2.1-9.2,0c-.9-2.1-3.4-4.1-5.9-3.1-2.5,1-7.4,1.8-8.3-.2-.2-.5-.6-.8-1.1-1-1.5-.5-3.9.2-4.4.2s3.2-3.2,5.4-5.1Z"/>
        <path class="st27" d="M340.5,1208.9c-1-.1-1.8-.5-2-1.2-.8-2-4.9-.8-5.5-.8s7.1-6.5,7.1-6.5c.8.5,1.7,1,2.8,1.5,12.3,5.6,41.7,9.7,41.7,9.7l.3,1.3,1.3,6.8s-2.9.5-5.4-1.2c-.2-.1-.4-.3-.6-.4-2.7-2.3-5.6-3.3-6.6-2.3-1,1-6,1.9-6.8-.2-.8-2.1-1.2-4.9-5-4.5-3.7.4-8.3,2.1-9.2,0-.9-2.1-3.4-4.1-5.9-3.1-1.6.7-4.3,1.2-6.2,1Z"/>
        <path class="st27" d="M448.5,1232.7s-1.1,1.2-2.4,2.2c-.8.6-1.6,1.1-2.3,1.3"/>
      </g>
    </g>
    <g>
      <path class="st47" d="M367.4,1036.5c.8-3.1,3.9-4.9,7.1-4.1h0c4.9,1.2,7.9,6,6.7,10.6l-6.1,12.9-10-2.3,2.3-17ZM381.3,1042.4l-5.7,12.6c19-1.9,26.7,12.4,32.6,12.9.4,0,.8,0,1.1,0,5.9-1.3,10.5-27.7,6-30.5-4.4-2.8-34.1.6-34.1.6v4.4ZM367.6,1034.8s-18.5-14.2-24.4-13.3-12.8,24.3-11.2,28.6,15.4-2.3,33.2,0l2.4-15.3Z"/>
      <g class="st50">
        <g class="st59">
          <rect class="st46" x="324.4" y="1016.7" width="97.4" height="55.7"/>
          <g class="st54">
            <use transform="translate(421.8 1016.7) rotate(-180) scale(0 0)" xlink:href="#image"/>
          </g>
          <rect class="st33" x="324.4" y="1016.7" width="97.4" height="55.7"/>
        </g>
      </g>
      <path class="st36" d="M367.4,1036.5c.8-3.1,3.9-4.9,7.1-4.1h0c4.9,1.2,7.9,6,6.7,10.6l-6.1,12.9-10-2.3,2.3-17ZM381.3,1042.4l-5.7,12.6c19-1.9,26.7,12.4,32.6,12.9.4,0,.8,0,1.1,0,5.9-1.3,10.5-27.7,6-30.5-4.4-2.8-34.1.6-34.1.6v4.4ZM367.6,1034.8s-18.5-14.2-24.4-13.3-12.8,24.3-11.2,28.6,15.4-2.3,33.2,0l2.4-15.3Z"/>
    </g>
    <path class="st15" d="M403.3,1070.5c-2.6.4-5.5.5-8.4.1l-3.5,30.4s40.8,13.2,59.9,6.7c19.1-6.5,31.5-32.6,31.5-32.6,0,0-.4.6,0,0,9.4-31-8.7-40.8-9.3-41.1.5-.6-18.7-11-31.2.8-8.1,7.7-18.9,32.4-39,35.7"/>
    <path class="st27" d="M466.4,1050.4"/>
    <path class="st7" d="M354.9,1120.1c70.5,10.1,125.1-21.8,125.1-21.8l64.5,59.4s-5.1,22-33.1,23.5c-14.2.7-35.1-6.1-43.4,4-8.3,10.2-23.3,11.3-33.7,4.9-10.4-6.4-29.1,2.2-44.3-6.2-17.1-9.4-42.3,17.5-53.5,8.1-11.2-9.4-29.5-6.9-29.5-6.9l48-65Z"/>
    <path class="st7" d="M480,1098.3l53.9,34.2s-1.3,21.1-15.7,19.6c-14.4-1.5-39.3-10.5-38.3,4.1,1,14.5-10.1,21.6-19.8,18.1-9.7-3.5-23.3-21.6-38.2-9.8-14.9,11.8-28.1,15.1-34.6,10.7-6.5-4.4-11.7-22.2-20.8-14.1-9.1,8.2-22.2,11.7-30.9,6.7-8.8-5-15.2-6.7-15.2-6.7l34.3-41s66.4,9.9,125.4-21.8Z"/>
    <g>
      <path class="st47" d="M396.1,1063.5l13.6,23.2s-13.2,14.9-14.5,16.1c0,0-14.4-2.4-19.5-2.2-.9,0-1.6-.7-1.4-1.6,1.2-7.9,5.3-36.3,1.8-43.1l20,7.6Z"/>
      <g class="st53">
        <use class="st59" transform="translate(435.6 1043.1) rotate(-180) scale(0 0)" xlink:href="#image"/>
      </g>
      <path class="st36" d="M396.1,1063.5l13.6,23.2s-13.2,14.9-14.5,16.1c0,0-14.4-2.4-19.5-2.2-.9,0-1.6-.7-1.4-1.6,1.2-7.9,5.3-36.3,1.8-43.1l20,7.6Z"/>
    </g>
    <path class="st24" d="M326.2,1092.3s11.8,23.6,26.2,17.4v-35.1c.1,0-26.2,17.7-26.2,17.7"/>
    <g>
      <path class="st47" d="M342.2,1052.2l-20.4,17.6s14.5,21.4,15.4,22.9c0,0,22,3.3,22.4,5.1,0,0-7.4-24.1,5.4-47.7l-22.8,2.1Z"/>
      <g class="st52">
        <use class="st59" transform="translate(311.5 1020) rotate(19) scale(0)" xlink:href="#image"/>
      </g>
      <path class="st36" d="M342.2,1052.2l-20.4,17.6s14.5,21.4,15.4,22.9c0,0,22,3.3,22.4,5.1,0,0-7.4-24.1,5.4-47.7l-22.8,2.1Z"/>
    </g>
    <path class="st32" d="M376.7,1055.7s18.1,10.6,29.8,12c0,0-5.6-3.2-7-5s-13.3-9.6-22.9-7Z"/>
    <path class="st32" d="M365,1050.8s-19.1,3.7-30.5.6c0,0,4.7-1.4,6.7-2.5s15.9-4,23.8,1.9Z"/>
    <ellipse class="st42" cx="461.2" cy="992.4" rx="6.7" ry="16.4" transform="translate(-570.8 1356.3) rotate(-84.5)"/>
    <ellipse class="st42" cx="296.1" cy="974" rx="6.7" ry="16.4" transform="translate(-701.7 1175.4) rotate(-84.5)"/>
    <path class="st10" d="M557.2,910.9c17.2,7.6,76.2,76.7,60.6,117.8-15.6,41.1.7,46.7,3.7,56.7,3.2,10.9-6.5,23.5-21.6,30-13,5.6-4.4,27.5,9.6,29.3,0,0-22.7,15.6-46.9-14.4-9.1-11.3,20.6-22,19.7-39.5s-31.1-55.9-26.7-84.1c4.4-28.1.9-50.8-10.8-57.7"/>
    <path class="st23" d="M273.6,895.1c-17.2,7.6-76.2,76.7-60.6,117.8,15.6,41.1-.7,46.7-3.7,56.7-3.2,10.9,6.5,23.5,21.6,30,13,5.6-.4,26.2-14.3,28.1,0,0,41,23.9,51.7-13.2,5.2-18.1-20.6-22-19.7-39.5.9-17.5,31.1-55.9,26.7-84.1-4.4-28.1-.9-50.8,10.8-57.7"/>
    <path class="st12" d="M255.9,891.8c0,15.6,6.5,25.8,22.1,25.8,15.6,0,7.3-13,7.3-28.6,0-15.6,14.4-25.4-1.2-25.4s-28.2,12.6-28.2,28.2Z"/>
    <path class="st55" d="M352.6,905.2c-18.7-3.3-38.4-3.1-56.8,1.9-1.3.4-4.4,1.4-5.7,1.8,1.3-.6,4.2-2,5.5-2.6,1.8-.7,3.8-1.6,5.6-2.3,12.8-4.6,26.4-7,40.1-7.7,4.2-.2,8.3-.3,12.6,0,0,0-1.2,8.9-1.2,8.9h0Z"/>
    <path class="st55" d="M433.8,903c19.5,5.5,38.9,14.9,53.9,28.7,0,0,2.9,2.8,2.9,2.8-1.9-1.3-4.7-3.4-6.6-4.6-11.2-7.1-23.8-11.9-36.5-15.1-3.7-.9-7.8-1.8-11.5-2.4-1.3-.2-2.6-.4-3.7-.5l1.6-8.9h0Z"/>
    <path class="st41" d="M518.2,962.8s3.2,5.6-10.1,24.8c-13.3,19.2-22.1,40.4-21,52.6s-17.3,19.6-17.3,19.6c0,0,9.4-12.2,7.7-26.2s4.2-50.5,13.6-66.3c9.4-15.8,5.1-47.9,2.6-57.5l-3.4,28.6-10-6.4s9.1-41.3,2.4-51.3l-10,46.5s-28.2-17.8-42.9-16.3l4.7-51.2s-9.6,35.7-13.1,49.5c0,0-13-1.8-20.2-1.5s5.8-56.2,7.1-64.4c1.3-8.2-36.4,51.6-38.4,62.6,0,0-43.4-7.8-56.3-1.4,0,0,10.4-53.1,19.8-79.3l-29.6,77.5-5.7,1.4,1.7-48.4c-10.5.1-12.5,105.5-18.9,116.1-7.9,13-6.5,50.6,1.9,59.9,8.4,9.3,0,22.6,0,22.6,0,0,.6-13.2-9.4-16-10-2.8-20.1-40.9-18.4-66.9,1.5-22.5,19.3-71.4,27.3-108.6,0,0,2.6-59,69.4-79.8,55.7-17.4,106.7-23.6,156.4,23.8,30.7,29.4,49.5,82.1,44.9,114.4-.4,2.9-1,5.9-1.6,8.8-6.4,29.4-18.7,49.6-18.7,49.6l-14.5-16.7Z"/>
    <circle class="st12" cx="550.5" cy="925.4" r="28.2"/>
    <path class="st22" d="M387.7,1060.7c3.6-1,7.4-1.2,11-.4,9.4,2,27.6,6.3,27.8,9.5s-7.7,3.4-9.6,6.3c0,0,11.5,15.3,11.8,25.7.3,10.5-9.7,23.3-43.1-5.9,0,0,.3,2.2-14.6-19.1l16.8-16.1Z"/>
    <path class="st22" d="M356,1056.2c-2.9-2.5-6.2-4.1-9.8-4.9-9.4-2.1-27.7-5.7-29.2-2.9s5.6,6.3,6.2,9.7c0,0-16.8,9.1-21.4,18.5-4.6,9.4-.9,25.3,41.6,12.5,0,0,.2,1.3,23.9-12.9l-11.2-20.1Z"/>
    <path class="st27" d="M418.9,1074.4s-10.2,2.9-11.2,4.6"/>
    <path class="st27" d="M320.7,1054.7s8.1,6.9,8.2,8.9"/>
  </g>
</svg>