<?xml version="1.0" encoding="UTF-8"?>
<svg id="_レイヤー_2" data-name="レイヤー 2" xmlns="http://www.w3.org/2000/svg" viewBox="0 0 838.51 682.77">
  <defs>
    <style>
      .cls-1, .cls-2, .cls-3 {
        stroke: #312974;
        stroke-miterlimit: 10;
        stroke-width: 11px;
      }

      .cls-1, .cls-4 {
        fill: #ff88e9;
      }

      .cls-2 {
        fill: #e7ff80;
      }

      .cls-3 {
        fill: #ffc7f7;
      }

      .cls-5 {
        fill: #fff;
      }

      .cls-6 {
        fill: #312974;
      }

      .cls-7 {
        fill: #aee6ff;
      }
    </style>
  </defs>
  <g id="_レイヤー_1-2" data-name="レイヤー 1">
    <circle class="cls-2" cx="149.38" cy="545.06" r="102.05"/>
    <circle class="cls-2" cx="413.71" cy="575.22" r="102.05"/>
    <circle class="cls-2" cx="678.04" cy="545.06" r="102.05"/>
    <g>
      <path class="cls-4" d="M419.25,577.84c-111.53,0-216.32-11.4-295.06-32.09-75.43-19.82-118.69-46.28-118.69-72.58s43.26-52.76,118.69-72.59c78.74-20.69,183.53-32.09,295.06-32.09s216.32,11.4,295.06,32.09c75.43,19.82,118.69,46.28,118.69,72.59s-43.26,52.76-118.69,72.58c-78.74,20.69-183.53,32.09-295.06,32.09Z"/>
      <path class="cls-6" d="M419.25,373.99c111.07,0,215.36,11.33,293.66,31.91,36.91,9.7,66.94,21.36,86.84,33.72,12.66,7.87,27.75,20.07,27.75,33.54s-15.09,25.68-27.75,33.54c-19.9,12.36-49.93,24.02-86.84,33.72-78.3,20.58-182.59,31.91-293.66,31.91s-215.36-11.33-293.66-31.91c-36.91-9.7-66.94-21.36-86.84-33.72-12.66-7.87-27.75-20.07-27.75-33.54s15.09-25.68,27.75-33.54c19.9-12.36,49.93-24.02,86.84-33.72,78.3-20.58,182.59-31.91,293.66-31.91M419.25,362.99C187.71,362.99,0,412.32,0,473.17s187.71,110.17,419.25,110.17,419.25-49.33,419.25-110.17-187.71-110.17-419.25-110.17h0Z"/>
    </g>
    <path class="cls-1" d="M348.88,233.21l-103.2,66.62L117.08,135.62c-20.33-31.49-30-81.07,24.35-116.15h0c54.34-35.08,94.56,3.19,114.89,34.68l92.56,179.05Z"/>
    <path class="cls-3" d="M310.52,219.22l-67.08,43.3-83.59-106.73c-13.21-20.47-19.5-52.69,15.82-75.5h0c35.32-22.8,61.46,2.07,74.68,22.54l60.17,116.38Z"/>
    <path class="cls-1" d="M462.34,233.21l103.2,66.62,128.6-164.21c20.33-31.49,30-81.07-24.35-116.15h0c-54.34-35.08-94.56,3.19-114.89,34.68l-92.56,179.05Z"/>
    <path class="cls-3" d="M495.42,219.22l67.08,43.3,83.59-106.73c13.21-20.47,19.5-52.69-15.82-75.5h0c-35.32-22.8-61.46,2.07-74.68,22.54l-60.17,116.38Z"/>
    <g>
      <path class="cls-7" d="M419.25,461.01c-133.16,0-227.42-7.03-227.42-98.02s102.02-171.96,227.42-171.96,227.42,77.14,227.42,171.96-94.26,98.02-227.42,98.02Z"/>
      <path class="cls-6" d="M419.25,196.53c122.37,0,221.92,74.67,221.92,166.46,0,21.11-5.17,37.63-15.79,50.53-9.85,11.95-24.51,20.96-44.81,27.52-41.34,13.37-99.89,14.47-161.31,14.47s-119.98-1.11-161.31-14.47c-20.3-6.56-34.96-15.57-44.81-27.52-10.63-12.89-15.79-29.42-15.79-50.53,0-91.79,99.55-166.46,221.92-166.46M419.25,185.53c-128.64,0-232.92,79.45-232.92,177.46s104.28,103.52,232.92,103.52,232.92-5.51,232.92-103.52-104.28-177.46-232.92-177.46h0Z"/>
    </g>
    <path class="cls-5" d="M313.29,232.93c-43.75,16.68-77.99,54-89.48,99.62-3.77,14.98,19.37,21.37,23.14,6.38,9.33-37.04,37.04-69.25,72.72-82.86,6.05-2.31,10.22-8.09,8.38-14.76-1.59-5.8-8.67-10.7-14.76-8.38h0Z"/>
    <path class="cls-5" d="M225.89,374.65c-1.56,3.51-2.52,6.4-2.67,10.29-.1,2.65.33,5.57,1.37,8.03,1.27,3.02,2.56,5.44,5.51,7.17,2.57,1.51,6.36,2.14,9.25,1.21s5.71-2.74,7.17-5.51,2.43-6.35,1.21-9.25c-.39-.92-.65-1.82-.83-2.8l.43,3.19c-.12-.99-.14-1.93-.05-2.92l-.43,3.19c.14-.98.38-1.9.73-2.83l-1.21,2.87.24-.54c1.36-3.04,2.13-5.9,1.21-9.25-.77-2.78-2.92-5.8-5.51-7.17-2.78-1.47-6.16-2.21-9.25-1.21-2.78.9-5.93,2.72-7.17,5.51h0Z"/>
    <path class="cls-6" d="M413.71,558.15l-16.12-13.35c-1.04-.86-2.31-1.89-3.66-2.97-14.46-11.64-24.91-20.89-27.63-34.03-2.83-13.66,5.95-27.04,19.62-29.87,11.51-2.39,22.82,3.48,27.79,13.56,4.97-10.08,16.27-15.94,27.79-13.56,13.66,2.83,22.45,16.2,19.62,29.87-2.72,13.14-13.17,22.39-27.63,34.03-1.34,1.08-2.61,2.1-3.66,2.97l-16.12,13.35Z"/>
    <path class="cls-6" d="M665.17,524.6l-18.59-9.61c-1.2-.62-2.66-1.35-4.2-2.12-16.61-8.29-28.79-15.1-34.25-27.36-5.68-12.75.05-27.68,12.8-33.36,10.74-4.79,23.04-1.47,30.04,7.32,2.7-10.91,12.5-19.05,24.26-19.17,13.95-.15,25.38,11.04,25.53,25,.14,13.42-8.09,24.69-19.74,39.14-1.08,1.34-2.1,2.61-2.94,3.68l-12.9,16.48Z"/>
    <path class="cls-6" d="M174.51,527.3l-12.9-16.48c-.84-1.07-1.86-2.33-2.94-3.68-11.65-14.45-19.88-25.72-19.74-39.14.15-13.95,11.58-25.15,25.53-25,11.76.12,21.56,8.26,24.26,19.17,7-8.79,19.3-12.11,30.04-7.33,12.75,5.68,18.48,20.61,12.8,33.36-5.46,12.26-17.64,19.07-34.25,27.36-1.54.77-3,1.5-4.2,2.12l-18.59,9.61Z"/>
  </g>
</svg>