<?xml version="1.0" encoding="UTF-8"?>
<svg xmlns="http://www.w3.org/2000/svg" xmlns:xlink="http://www.w3.org/1999/xlink" viewBox="0 0 838.51 1370.06">
  <defs>
    <style>
      .cls-1, .cls-2, .cls-3, .cls-4, .cls-5, .cls-6, .cls-7, .cls-8, .cls-9, .cls-10, .cls-11, .cls-12, .cls-13, .cls-14, .cls-15, .cls-16, .cls-17, .cls-18, .cls-19, .cls-20, .cls-21, .cls-22, .cls-23, .cls-24, .cls-25, .cls-26, .cls-27, .cls-28, .cls-29, .cls-30, .cls-31, .cls-32, .cls-33, .cls-34, .cls-35, .cls-36, .cls-37, .cls-38, .cls-39 {
        stroke-miterlimit: 10;
      }

      .cls-1, .cls-2, .cls-3, .cls-4, .cls-5, .cls-8, .cls-10, .cls-11, .cls-12, .cls-13, .cls-15, .cls-16, .cls-17, .cls-20, .cls-21, .cls-22, .cls-23, .cls-24, .cls-25, .cls-26, .cls-27, .cls-28, .cls-29, .cls-30, .cls-32, .cls-34, .cls-37, .cls-38, .cls-39 {
        stroke: #231815;
      }

      .cls-1, .cls-8, .cls-11, .cls-13, .cls-16, .cls-22, .cls-26, .cls-32, .cls-34, .cls-35, .cls-39 {
        stroke-width: 2px;
      }

      .cls-1, .cls-37 {
        fill: #282828;
      }

      .cls-2, .cls-3, .cls-15, .cls-26, .cls-35, .cls-36 {
        fill: none;
      }

      .cls-2, .cls-4, .cls-5, .cls-10, .cls-17, .cls-18, .cls-20, .cls-21, .cls-25, .cls-27, .cls-28, .cls-33, .cls-36, .cls-37, .cls-38 {
        stroke-width: 7px;
      }

      .cls-3 {
        stroke-width: 8px;
      }

      .cls-4 {
        fill: url(#_名称未設定グラデーション_7);
      }

      .cls-5 {
        fill: url(#_名称未設定グラデーション_8);
      }

      .cls-40 {
        fill: #ffc5ea;
      }

      .cls-6, .cls-7, .cls-9, .cls-14, .cls-19 {
        stroke: #312974;
        stroke-width: 11px;
      }

      .cls-6, .cls-41 {
        fill: #ff88e9;
      }

      .cls-7 {
        fill: #fff7b0;
      }

      .cls-8, .cls-27 {
        fill: #3f3f3f;
      }

      .cls-9 {
        fill: #fffad9;
      }

      .cls-10, .cls-12, .cls-22, .cls-42 {
        fill: #ffefe9;
      }

      .cls-11 {
        fill: url(#hairGradientBrown);
      }

      .cls-12, .cls-15, .cls-23, .cls-30 {
        stroke-width: 3px;
      }

      .cls-13, .cls-21, .cls-43 {
        fill: #fff;
      }

      .cls-14 {
        fill: #e7ff80;
      }

      .cls-16, .cls-17, .cls-44, .cls-18, .cls-23 {
        fill: #b08db5;
      }

      .cls-18, .cls-31, .cls-33, .cls-35, .cls-36 {
        stroke: #000;
      }

      .cls-19 {
        fill: #ffc7f7;
      }

      .cls-20, .cls-39 {
        fill: #3a3a3a;
      }

      .cls-45 {
        clip-path: url(#clippath-1);
      }

      .cls-46 {
        clip-path: url(#clippath-3);
      }

      .cls-47 {
        clip-path: url(#clippath-2);
      }

      .cls-24, .cls-25, .cls-48, .cls-30 {
        fill: #231815;
      }

      .cls-28, .cls-29 {
        fill: #e5aeff;
      }

      .cls-31, .cls-33 {
        fill: #6f5e72;
      }

      .cls-32 {
        fill: url(#hairGradientBrown-2);
      }

      .cls-34, .cls-38 {
        fill: #444;
      }

      .cls-49 {
        fill: #bbb3bc;
      }

      .cls-50 {
        fill: #232526;
      }

      .cls-51 {
        fill: #312974;
      }

      .cls-52 {
        fill: #aee6ff;
      }

      .cls-53 {
        clip-path: url(#clippath);
      }
    </style>
    <clipPath id="clippath">
      <path class="cls-18" d="M367.44,1036.48c.77-3.15,3.92-4.93,7.06-4.15h0c4.88,1.23,7.9,5.99,6.73,10.64l-6.09,12.88-9.99-2.34,2.28-17.03ZM381.33,1042.42l-5.67,12.65c18.98-1.9,26.69,12.4,32.63,12.89.4.03.78.01,1.14-.07,5.86-1.33,10.46-27.72,6.02-30.51-4.44-2.79-34.13.61-34.13.61v4.43ZM367.57,1034.75s-18.51-14.15-24.41-13.34-12.79,24.25-11.19,28.6,15.39-2.25,33.2,0l2.4-15.26Z"/>
    </clipPath>
    <clipPath id="clippath-1">
      <rect class="cls-18" x="324.41" y="1016.69" width="97.37" height="55.65"/>
    </clipPath>
    <clipPath id="clippath-2">
      <path class="cls-18" d="M396.07,1063.51l13.57,23.24s-13.2,14.9-14.5,16.05c0,0-14.4-2.4-19.52-2.19-.87.03-1.55-.74-1.42-1.61,1.22-7.86,5.31-36.31,1.83-43.13l20.03,7.64Z"/>
    </clipPath>
    <clipPath id="clippath-3">
      <path class="cls-18" d="M342.16,1052.17l-20.39,17.57s14.54,21.4,15.39,22.91c0,0,21.98,3.27,22.41,5.1,0,0-7.4-24.1,5.42-47.66l-22.84,2.07Z"/>
    </clipPath>
    <linearGradient id="_名称未設定グラデーション_8" data-name="名称未設定グラデーション 8" x1="241.94" y1="1063.69" x2="246.65" y2="1002.17" gradientTransform="translate(830.89) rotate(-180) scale(1 -1)" gradientUnits="userSpaceOnUse">
      <stop offset="0" stop-color="#957845"/>
      <stop offset="1" stop-color="#3a3a3a"/>
    </linearGradient>
    <linearGradient id="_名称未設定グラデーション_7" data-name="名称未設定グラデーション 7" x1="595.28" y1="1072.39" x2="580.14" y2="996.45" gradientTransform="translate(830.89) rotate(-180) scale(1 -1)" gradientUnits="userSpaceOnUse">
      <stop offset="0" stop-color="#957845"/>
      <stop offset=".6" stop-color="#5c513e"/>
      <stop offset="1" stop-color="#3a3a3a"/>
    </linearGradient>
    <linearGradient id="hairGradientBrown" x1="544.7" y1="1029.87" x2="622.13" y2="1029.87" gradientUnits="userSpaceOnUse">
      <stop offset="0" stop-color="#957845"/>
      <stop offset=".6" stop-color="#5c513e"/>
      <stop offset="1" stop-color="#3a3a3a"/>
    </linearGradient>
    <linearGradient id="hairGradientBrown-2" data-name="hairGradientBrown" x1="595.28" y1="1072.39" x2="580.14" y2="996.45" gradientTransform="translate(830.89) rotate(-180) scale(1 -1)" xlink:href="#hairGradientBrown"/>
    <image id="image" width="5123" height="2928" xlink:href="../../../tem2/illustrater/Candy_Fukaya_Assignment1_ver2/refarance/AdobeStock_1026055486.png"/>
  </defs>
  <g id="light">
    <g id="_レイヤー_1-2" data-name=" レイヤー 1-2">
      <polygon class="cls-9" points="416.13 289.91 94.81 1133.61 413.71 1173.59 728.84 1125.01 416.13 289.91"/>
      <ellipse class="cls-7" cx="413.71" cy="1163.98" rx="324.6" ry="161.91"/>
    </g>
  </g>
  <g id="ufo">
    <g id="_レイヤー_1-2-2" data-name=" レイヤー 1-2">
      <circle class="cls-14" cx="149.38" cy="545.06" r="102.05"/>
      <circle class="cls-14" cx="413.71" cy="575.22" r="102.05"/>
      <circle class="cls-14" cx="678.04" cy="545.06" r="102.05"/>
      <g>
        <path class="cls-41" d="M419.25,577.84c-111.53,0-216.32-11.4-295.06-32.09-75.43-19.82-118.69-46.28-118.69-72.58s43.26-52.76,118.69-72.59c78.74-20.69,183.53-32.09,295.06-32.09s216.32,11.4,295.06,32.09c75.43,19.82,118.69,46.28,118.69,72.59s-43.26,52.76-118.69,72.58c-78.74,20.69-183.53,32.09-295.06,32.09Z"/>
        <path class="cls-51" d="M419.25,373.99c111.07,0,215.36,11.33,293.66,31.91,36.91,9.7,66.94,21.36,86.84,33.72,12.66,7.87,27.75,20.07,27.75,33.54s-15.09,25.68-27.75,33.54c-19.9,12.36-49.93,24.02-86.84,33.72-78.3,20.58-182.59,31.91-293.66,31.91s-215.36-11.33-293.66-31.91c-36.91-9.7-66.94-21.36-86.84-33.72-12.66-7.87-27.75-20.07-27.75-33.54s15.09-25.68,27.75-33.54c19.9-12.36,49.93-24.02,86.84-33.72,78.3-20.58,182.59-31.91,293.66-31.91M419.25,362.99C187.71,362.99,0,412.32,0,473.17s187.71,110.17,419.25,110.17,419.25-49.33,419.25-110.17-187.71-110.17-419.25-110.17h0Z"/>
      </g>
      <path class="cls-6" d="M348.88,233.21l-103.2,66.62L117.08,135.62c-20.33-31.49-30-81.07,24.35-116.15h0c54.34-35.08,94.56,3.19,114.89,34.68l92.56,179.05h0Z"/>
      <path class="cls-19" d="M310.52,219.22l-67.08,43.3-83.59-106.73c-13.21-20.47-19.5-52.69,15.82-75.5h0c35.32-22.8,61.46,2.07,74.68,22.54l60.17,116.38h0Z"/>
      <path class="cls-6" d="M462.34,233.21l103.2,66.62,128.6-164.21c20.33-31.49,30-81.07-24.35-116.15h0c-54.34-35.08-94.56,3.19-114.89,34.68l-92.56,179.05h0Z"/>
      <path class="cls-19" d="M495.42,219.22l67.08,43.3,83.59-106.73c13.21-20.47,19.5-52.69-15.82-75.5h0c-35.32-22.8-61.46,2.07-74.68,22.54l-60.17,116.38h0Z"/>
      <g>
        <path class="cls-52" d="M419.25,461.01c-133.16,0-227.42-7.03-227.42-98.02s102.02-171.96,227.42-171.96,227.42,77.14,227.42,171.96-94.26,98.02-227.42,98.02Z"/>
        <path class="cls-51" d="M419.25,196.53c122.37,0,221.92,74.67,221.92,166.46,0,21.11-5.17,37.63-15.79,50.53-9.85,11.95-24.51,20.96-44.81,27.52-41.34,13.37-99.89,14.47-161.31,14.47s-119.98-1.11-161.31-14.47c-20.3-6.56-34.96-15.57-44.81-27.52-10.63-12.89-15.79-29.42-15.79-50.53,0-91.79,99.55-166.46,221.92-166.46M419.25,185.53c-128.64,0-232.92,79.45-232.92,177.46s104.28,103.52,232.92,103.52,232.92-5.51,232.92-103.52-104.28-177.46-232.92-177.46h0Z"/>
      </g>
      <path class="cls-43" d="M313.29,232.93c-43.75,16.68-77.99,54-89.48,99.62-3.77,14.98,19.37,21.37,23.14,6.38,9.33-37.04,37.04-69.25,72.72-82.86,6.05-2.31,10.22-8.09,8.38-14.76-1.59-5.8-8.67-10.7-14.76-8.38h0Z"/>
      <path class="cls-43" d="M225.89,374.65c-1.56,3.51-2.52,6.4-2.67,10.29-.1,2.65.33,5.57,1.37,8.03,1.27,3.02,2.56,5.44,5.51,7.17,2.57,1.51,6.36,2.14,9.25,1.21s5.71-2.74,7.17-5.51,2.43-6.35,1.21-9.25c-.39-.92-.65-1.82-.83-2.8l.43,3.19c-.12-.99-.14-1.93-.05-2.92l-.43,3.19c.14-.98.38-1.9.73-2.83l-1.21,2.87.24-.54c1.36-3.04,2.13-5.9,1.21-9.25-.77-2.78-2.92-5.8-5.51-7.17-2.78-1.47-6.16-2.21-9.25-1.21-2.78.9-5.93,2.72-7.17,5.51h0v.02Z"/>
      <path class="cls-51" d="M413.71,558.15l-16.12-13.35c-1.04-.86-2.31-1.89-3.66-2.97-14.46-11.64-24.91-20.89-27.63-34.03-2.83-13.66,5.95-27.04,19.62-29.87,11.51-2.39,22.82,3.48,27.79,13.56,4.97-10.08,16.27-15.94,27.79-13.56,13.66,2.83,22.45,16.2,19.62,29.87-2.72,13.14-13.17,22.39-27.63,34.03-1.34,1.08-2.61,2.1-3.66,2.97l-16.12,13.35Z"/>
      <path class="cls-51" d="M665.17,524.6l-18.59-9.61c-1.2-.62-2.66-1.35-4.2-2.12-16.61-8.29-28.79-15.1-34.25-27.36-5.68-12.75.05-27.68,12.8-33.36,10.74-4.79,23.04-1.47,30.04,7.32,2.7-10.91,12.5-19.05,24.26-19.17,13.95-.15,25.38,11.04,25.53,25,.14,13.42-8.09,24.69-19.74,39.14-1.08,1.34-2.1,2.61-2.94,3.68l-12.9,16.48h0Z"/>
      <path class="cls-51" d="M174.51,527.3l-12.9-16.48c-.84-1.07-1.86-2.33-2.94-3.68-11.65-14.45-19.88-25.72-19.74-39.14.15-13.95,11.58-25.15,25.53-25,11.76.12,21.56,8.26,24.26,19.17,7-8.79,19.3-12.11,30.04-7.33,12.75,5.68,18.48,20.61,12.8,33.36-5.46,12.26-17.64,19.07-34.25,27.36-1.54.77-3,1.5-4.2,2.12l-18.59,9.61h0Z"/>
    </g>
  </g>
  <g id="girl">
    <path class="cls-10" d="M527.66,961.27c5.32-11.31,9.88-24.37,13.62-39.46,17.77-71.64-51.44-134.62-124.24-134.62-72.8,0-138.26,42.85-131.86,116.44,1.25,14.33,3.73,28.56-.34,39.86-6.59,18.26,1.21,36.34,8.49,45.26,9.47,11.59,32.04,33.74,97.54,42.99,37.22,5.26,70.27-4.69,96.29-21.72"/>
    <path class="cls-43" d="M310.1,913.8l30.81.67s6.75,2,4.47,23.92c-2.89,27.82.7,27.13.7,27.13l-19.12,9.67s-22.04,2.25-33.51-20.47l-3.37-21.82,20.02-19.12Z"/>
    <path class="cls-10" d="M370.04,1075.95s18.4-8.02,23.95-8.64,4.94-2.88,0-6.38-31.47-2.41-37.64,4.14"/>
    <path class="cls-2" d="M523.77,964.1c-6.66-3.85-15.69-1.62-23.47,4.89"/>
    <path class="cls-10" d="M482.66,1015.23c9.77,5.64,31.16-2.97,43.32-14.09,12.62-11.54,7.56-31.4-2.21-37.04"/>
    <path class="cls-17" d="M457.04,1025.27s33.55,88.82,33.58,136.14l-137.68-1.5s-.48-131.57-2.61-135.4c-2.13-3.84,26.57,8.61,55.66,8.9,29.09.29,51.05-8.13,51.05-8.13Z"/>
    <path class="cls-43" d="M461.15,928.12s23.8,19.04,24.75,25.71c.95,6.66-4.87,20.61-5.82,23.81-1.23,4.15-33.86,13.75-45.52,9.95-11.66-3.81-22.68-22.81-22.68-22.81l-3.94-5.87s-5.1-3.89,4.66-37.92,0,0,0,0l34.75-.71,13.81,7.85Z"/>
    <ellipse class="cls-38" cx="438.99" cy="954.72" rx="30.79" ry="32.41"/>
    <path class="cls-28" d="M408.19,954.72c1.29,19.73,15.22,31.5,29.44,32.21,12.02.6,22.8-6.15,28.38-16.48,0,0-10.04-7.57-26.68-11.83-15.08-3.86-31.14-3.91-31.14-3.91Z"/>
    <ellipse class="cls-38" cx="329.44" cy="944.39" rx="22.27" ry="30.37"/>
    <path class="cls-28" d="M306.8,946.74c1.55,15.68,11.84,28.41,22.6,28.41,10.98,0,21.45-14.6,21.18-21.47,0,0-10.35-6.98-19.69-6.65s-24.09-.28-24.09-.28Z"/>
    <polygon class="cls-25" points="346.11 915.1 351.13 918.96 346.38 918.03 346.19 921.45 343.46 917.58 346.11 915.1"/>
    <polygon class="cls-25" points="290.21 951.57 294.44 956.52 295.92 950.06 290.21 951.57"/>
    <path class="cls-2" d="M413.88,921.27s32.28-11.41,54.17,12.12c21.89,23.53,17.37,21.43,17.92,35.57l-8.4,8.16"/>
    <path class="cls-2" d="M345.42,917.56s-27.72-25.6-55.45,17.62l2.92,15.51"/>
    <path class="cls-2" d="M356.35,987.13s-6.12,1.04-4.3,4.7c1.82,3.66,6.06,3.39,4.3,4.96s-2.6,1.37-2.73,3.56,4.6,3.49,4.6,3.49"/>
    <line class="cls-2" x1="363.18" y1="966.32" x2="360.59" y2="966.32"/>
    <polygon class="cls-25" points="475.3 975.25 473.06 981.36 479.42 979.49 475.3 975.25"/>
    <ellipse class="cls-37" cx="438.63" cy="954.85" rx="17.54" ry="11.32" transform="translate(-592.67 1156.22) rotate(-76.38)"/>
    <ellipse class="cls-37" cx="329.44" cy="944.39" rx="8.79" ry="14.85"/>
    <circle class="cls-43" cx="451.87" cy="944.39" r="4.86"/>
    <circle class="cls-43" cx="337.29" cy="932.86" r="4.86"/>
    <polygon class="cls-25" points="415.32 918.41 409.31 920.44 414.11 921.1 413.18 924.4 417.02 921.62 415.32 918.41"/>
    <g>
      <g>
        <path class="cls-43" d="M339.95,1200.36s-7.68,6.51-7.06,6.51,4.75-1.16,5.55.83c.27.68,1.04,1.03,2.03,1.18.74-2.22,1.52-4.57,2.31-6.98-1.09-.5-2.04-1.01-2.83-1.53Z"/>
        <path class="cls-50" d="M333.49,1230.11c-8.27,17.3,5.84,18.06,5.84,18.06,23.96,5.91,32.96-16.23,32.96-16.23l-.52,4.31,6.35.2s.66-2.74,1.22-6.72c.48-3.41-.8-7.25-1.18-8.27-2.4,2.82-5.13,5.76-8.27,8.8,0,0-1.87.75-4.74,1.71,0,0,0,0-.02,0-3.34,2.08-5.89,3.36-5.89,3.36-19.29,7.19-24.35-1.4-25.47-4.31-.22-.55-.29-.9-.29-.9Z"/>
        <path class="cls-43" d="M333.84,1227.8s-.7,1.44.04,3.18c.66,1.55,2.44,3.34,6.83,4.59,6.48,1.83,17.96-1.41,24.43-3.59,0,0,.02,0,.02,0,1.25-.77,2.6-1.65,3.97-2.62l-5.4,2.16s-20.03-9.22-29.38-5.13c-.33.92-.52,1.43-.52,1.43Z"/>
        <path class="cls-50" d="M335.57,1220.71l-1.32,5.71s.07-.03.1-.05c.45-1.23,1.17-3.21,2.06-5.73-.29.02-.57.05-.85.08Z"/>
        <path class="cls-50" d="M336.41,1220.63c-.89,2.53-1.61,4.5-2.06,5.73,9.34-4.09,29.38,5.13,29.38,5.13l5.4-2.16c.28-.19.55-.39.84-.6-2.87-1.14-22.82-8.79-33.55-8.1Z"/>
        <path class="cls-43" d="M336.41,1220.63c10.74-.69,30.68,6.97,33.55,8.1,3.05-2.21,6.09-4.82,8.1-7.55,0,0,.04.09.1.26.87-1.02,1.7-2.04,2.48-3.04-.19-.13-.38-.27-.55-.42-2.68-2.26-5.57-3.28-6.6-2.26-1.02,1.03-5.98,1.86-6.8-.21-.83-2.06-1.24-4.94-4.95-4.53-3.7.41-8.25,2.06-9.17,0-.92-2.07-3.4-4.13-5.88-3.09-1.63.68-4.33,1.22-6.23.97-1.53,4.54-2.93,8.58-4.05,11.76Z"/>
        <path class="cls-43" d="M340.46,1208.87c1.9.25,4.61-.29,6.23-.97,2.47-1.03,4.95,1.02,5.88,3.09.92,2.06,5.47.41,9.17,0,3.71-.41,4.13,2.47,4.95,4.53.82,2.07,5.77,1.24,6.8.21,1.03-1.02,3.92,0,6.6,2.26.18.15.37.29.55.42,1.52-1.93,2.88-3.8,4.09-5.6l-.25-1.27s-29.43-4-41.71-9.65c-.79,2.42-1.57,4.77-2.31,6.98Z"/>
        <path class="cls-42" d="M353.33,1163.43c-1.75,10.23-6.29,25.41-10.56,38.46,12.28,5.65,41.71,9.65,41.71,9.65l.25,1.27c11.8-17.57,9.8-28.9,9.8-28.9l-.96-2.8,26.35.94c.84,4.59-.91,16.04-3.1,27.35.96-.84,1.66-1.43,1.66-1.43,9.17,6.11,41.05,10.7,44.28,11.15,11.43-12.99,24.32-31.98,27.68-54.19l-137.12-1.49Z"/>
        <path class="cls-42" d="M353.98,1158.62l-1.21,4.8h.56c.31-1.76.53-3.37.65-4.8Z"/>
        <path class="cls-50" d="M369.13,1229.34c-1.36.97-2.72,1.85-3.97,2.62,2.87-.96,4.74-1.71,4.74-1.71,3.14-3.04,5.88-5.98,8.27-8.8-.07-.17-.1-.26-.1-.26-2.01,2.73-5.06,5.34-8.1,7.55.23.08.35.13.35.13l-1.18.47Z"/>
        <path class="cls-50" d="M369.13,1229.34l1.18-.47s-.12-.05-.35-.13c-.28.21-.55.41-.84.6Z"/>
        <path class="cls-43" d="M384.74,1212.81c-1.21,1.8-2.57,3.68-4.09,5.6,2.56,1.75,5.42,1.22,5.42,1.22l-1.33-6.82Z"/>
        <path class="cls-50" d="M410.37,1237.05c-7.73,17.55,6.4,17.87,6.4,17.87,24.13,5.16,32.43-17.25,32.43-17.25l-.39,4.31h6.36s.57-2.76,1.01-6.76c.34-3.06-.74-6.41-1.27-7.81-6.61,6.51-11.46,10.16-11.46,10.16,0,0-2.27,1.42-5.64,3.01-.02,0-.03,0-.05.02-.93.55-1.49.86-1.49.86-1.96.8-3.78,1.44-5.45,1.91-7.31,2.33-15.8,3.01-19.54-4.23l-.08-.14c-.63-1.12-.83-1.95-.83-1.95Z"/>
        <path class="cls-42" d="M410.93,1236.17c-.23.9-.35,1.4-.35,1.4.19.5.39.98.61,1.42l.08.14c1.8,3.03,6.78,7.9,19.54,4.23,2.54-.8,4.94-1.81,6.95-2.76.02,0,.03-.02.05-.02,1.84-1.08,5.09-3.08,8.38-5.59l-.07-.08c-.75.6-1.57,1.14-2.26,1.29,0,0-26.34,16.67-32.87,0l-.07-.02Z"/>
        <path class="cls-43" d="M410.93,1236.17l.07.02c6.53,16.67,32.87,0,32.87,0,0,0-22.16-10.13-31.44-5.93l1.06-4.65-.08-.02c-1.08,4.79-2,8.64-2.47,10.58Z"/>
        <path class="cls-43" d="M416.82,1209.4c-2.22,1.92-5.83,5.1-5.4,5.1s2.87-.64,4.4-.15c.34-1.64.67-3.29,1-4.94Z"/>
        <path class="cls-50" d="M413.49,1225.61l-1.06,4.65c9.29-4.2,31.44,5.93,31.44,5.93l4.62-3.48s-23.44-9.43-34.75-8.16l-.24,1.05Z"/>
        <path class="cls-43" d="M413.4,1225.59l.08.02.24-1.05c11.31-1.27,34.75,8.16,34.75,8.16,0,0-1.09,1.19-2.36,2.19l.07.08c3.17-2.4,6.39-5.28,8.45-8.25,0,0,.11.24.27.68.85-.83,1.72-1.71,2.62-2.64-2.33-1.65-4.62-2.3-5.5-1.41-1.03,1.02-5.98,1.85-6.81-.21-.83-2.07-1.23-4.95-4.94-4.54s-8.25,2.06-9.17,0c-.93-2.06-3.41-4.12-5.88-3.09-2.46,1.03-7.45,1.78-8.25-.21-.21-.51-.63-.8-1.15-.97-.83,4-1.66,7.86-2.43,11.24Z"/>
        <path class="cls-43" d="M416.82,1209.4c-.33,1.65-.66,3.31-1,4.94.52.17.94.46,1.15.97.81,1.98,5.79,1.24,8.25.21,2.47-1.02,4.95,1.03,5.88,3.09.92,2.06,5.46.41,9.17,0s4.12,2.47,4.94,4.54c.83,2.06,5.77,1.23,6.81.21.88-.89,3.17-.24,5.5,1.41,1.68-1.73,3.43-3.61,5.23-5.65-3.22-.45-35.11-5.04-44.28-11.15,0,0-.71.59-1.66,1.43Z"/>
        <path class="cls-50" d="M411.28,1239.13c3.74,7.24,12.23,6.56,19.54,4.23-12.77,3.67-17.75-1.2-19.54-4.23Z"/>
        <path class="cls-50" d="M446.19,1234.99c-3.29,2.51-6.53,4.51-8.38,5.59,3.37-1.59,5.64-3.01,5.64-3.01,0,0,4.85-3.65,11.46-10.16-.16-.43-.27-.68-.27-.68-2.06,2.97-5.28,5.86-8.45,8.25Z"/>
        <path class="cls-42" d="M448.49,1232.71l-4.62,3.48c.69-.15,1.5-.69,2.26-1.29,1.27-1,2.36-2.19,2.36-2.19Z"/>
        <path class="cls-43" d="M457.54,1224.77c.37.26.73.55,1.09.85,2.69,2.26,5.98,1.65,5.98,1.65l-1.58-8.1s-.09,0-.26-.04c-1.8,2.04-3.54,3.92-5.23,5.65Z"/>
      </g>
      <g>
        <path class="cls-2" d="M342.78,1201.89c4.27-13.05,8.81-28.23,10.56-38.46.31-1.77.53-3.38.65-4.81"/>
        <path class="cls-2" d="M336.41,1220.63c1.12-3.18,2.52-7.22,4.05-11.76"/>
        <path class="cls-2" d="M365.14,1231.97c-6.47,2.18-17.95,5.42-24.43,3.59-4.39-1.25-6.18-3.04-6.83-4.59-.73-1.74-.04-3.18-.04-3.18,0,0,.19-.51.52-1.43"/>
        <path class="cls-2" d="M380.65,1218.42c-.78,1-1.61,2.01-2.48,3.04"/>
        <path class="cls-2" d="M416.82,1209.4c2.19-11.31,3.94-22.76,3.1-27.35l-26.35-.94.96,2.8s2,11.33-9.8,28.9"/>
        <path class="cls-2" d="M411.19,1238.99c-.22-.44-.42-.92-.61-1.42,0,0,.12-.5.35-1.4.47-1.95,1.39-5.79,2.47-10.58.76-3.38,1.6-7.24,2.43-11.24"/>
        <path class="cls-2" d="M437.77,1240.6c-2.01.95-4.41,1.96-6.95,2.76"/>
        <path class="cls-2" d="M457.54,1224.77c-.9.93-1.78,1.81-2.62,2.64"/>
        <path class="cls-2" d="M352.77,1163.42h.56s137.12,1.5,137.12,1.5c-3.37,22.21-16.25,41.2-27.68,54.19"/>
        <path class="cls-2" d="M443.87,1236.19s-26.34,16.67-32.87,0"/>
        <path class="cls-2" d="M448.49,1232.71s-23.44-9.43-34.75-8.16l-.24,1.05-1.06,4.65c9.29-4.2,31.44,5.93,31.44,5.93"/>
        <path class="cls-2" d="M369.96,1228.74c-2.87-1.14-22.82-8.79-33.55-8.1-.29.02-.57.05-.85.08l-1.32,5.71s.07-.03.1-.05c9.34-4.09,29.38,5.13,29.38,5.13l5.4-2.16"/>
        <path class="cls-2" d="M446.19,1234.99c3.17-2.4,6.39-5.28,8.45-8.25,0,0,.11.24.27.68.53,1.4,1.61,4.75,1.27,7.81-.43,4-1.01,6.76-1.01,6.76h-6.36l.39-4.31s-8.3,22.41-32.43,17.25c0,0-14.13-.32-6.4-17.87,0,0,.2.83.83,1.95l.08.14c1.8,3.03,6.78,7.9,19.54,4.23,1.67-.47,3.49-1.11,5.45-1.91,0,0,.56-.3,1.49-.86.02,0,.03-.02.05-.02,1.84-1.08,5.09-3.08,8.38-5.59Z"/>
        <path class="cls-2" d="M365.16,1231.96c1.25-.77,2.6-1.65,3.97-2.62.28-.19.55-.39.84-.6,3.05-2.21,6.09-4.82,8.1-7.55,0,0,.04.09.1.26.38,1.02,1.65,4.86,1.18,8.27-.56,3.98-1.22,6.72-1.22,6.72l-6.35-.2.52-4.31s-9,22.14-32.96,16.23c0,0-14.11-.76-5.84-18.06,0,0,.08.35.29.9,1.12,2.91,6.18,11.51,25.47,4.31,0,0,2.56-1.28,5.89-3.36"/>
        <path class="cls-2" d="M416.82,1209.4c.96-.84,1.66-1.43,1.66-1.43,9.17,6.11,41.05,10.7,44.28,11.15.17.03.26.04.26.04l1.58,8.1s-3.29.61-5.98-1.65c-.36-.3-.72-.58-1.09-.85-2.33-1.65-4.62-2.3-5.5-1.41-1.03,1.02-5.98,1.85-6.81-.21-.83-2.07-1.23-4.95-4.94-4.54s-8.25,2.06-9.17,0c-.93-2.06-3.41-4.12-5.88-3.09-2.46,1.03-7.45,1.78-8.25-.21-.21-.51-.63-.8-1.15-.97-1.53-.49-3.95.15-4.4.15s3.18-3.18,5.4-5.1Z"/>
        <path class="cls-2" d="M340.46,1208.87c-.99-.14-1.76-.5-2.03-1.18-.8-1.98-4.93-.83-5.55-.83s7.06-6.51,7.06-6.51c.79.53,1.74,1.03,2.83,1.53,12.28,5.65,41.71,9.65,41.71,9.65l.25,1.27,1.33,6.82s-2.87.53-5.42-1.22c-.19-.13-.38-.27-.55-.42-2.68-2.26-5.57-3.28-6.6-2.26-1.02,1.03-5.98,1.86-6.8-.21-.83-2.06-1.24-4.94-4.95-4.53-3.7.41-8.25,2.06-9.17,0-.92-2.07-3.4-4.13-5.88-3.09-1.63.68-4.33,1.22-6.23.97Z"/>
        <path class="cls-2" d="M448.49,1232.71s-1.09,1.19-2.36,2.19c-.75.6-1.57,1.14-2.26,1.29"/>
      </g>
    </g>
    <g>
      <path class="cls-44" d="M367.44,1036.48c.77-3.15,3.92-4.93,7.06-4.15h0c4.88,1.23,7.9,5.99,6.73,10.64l-6.09,12.88-9.99-2.34,2.28-17.03ZM381.33,1042.42l-5.67,12.65c18.98-1.9,26.69,12.4,32.63,12.89.4.03.78.01,1.14-.07,5.86-1.33,10.46-27.72,6.02-30.51-4.44-2.79-34.13.61-34.13.61v4.43ZM367.57,1034.75s-18.51-14.15-24.41-13.34-12.79,24.25-11.19,28.6,15.39-2.25,33.2,0l2.4-15.26Z"/>
      <g class="cls-53">
        <g>
          <rect class="cls-44" x="324.41" y="1016.69" width="97.37" height="55.65"/>
          <g class="cls-45">
            <use transform="translate(421.79 1016.69) rotate(-180) scale(.02 -.02)" xlink:href="#image"/>
          </g>
          <rect class="cls-36" x="324.41" y="1016.69" width="97.37" height="55.65"/>
        </g>
      </g>
      <path class="cls-36" d="M367.44,1036.48c.77-3.15,3.92-4.93,7.06-4.15h0c4.88,1.23,7.9,5.99,6.73,10.64l-6.09,12.88-9.99-2.34,2.28-17.03ZM381.33,1042.42l-5.67,12.65c18.98-1.9,26.69,12.4,32.63,12.89.4.03.78.01,1.14-.07,5.86-1.33,10.46-27.72,6.02-30.51-4.44-2.79-34.13.61-34.13.61v4.43ZM367.57,1034.75s-18.51-14.15-24.41-13.34-12.79,24.25-11.19,28.6,15.39-2.25,33.2,0l2.4-15.26Z"/>
    </g>
    <path class="cls-17" d="M403.28,1070.49c-2.65.44-5.46.51-8.45.12l-3.54,30.4s40.83,13.19,59.94,6.69c19.1-6.5,31.49-32.61,31.49-32.61,0,0-.41.59,0,0,9.42-31.03-8.67-40.82-9.25-41.15.55-.6-18.67-10.98-31.18.84-8.15,7.7-18.86,32.38-39,35.71"/>
    <path class="cls-27" d="M354.92,1120.11c70.54,10.05,125.09-21.8,125.09-21.8l64.51,59.41s-5.06,22.01-33.09,23.46c-14.17.74-35.13-6.14-43.43,4.03-8.3,10.16-23.33,11.27-33.69,4.89-10.36-6.37-29.15,2.21-44.32-6.15-17.05-9.4-42.3,17.5-53.52,8.09-11.22-9.41-29.53-6.9-29.53-6.9l47.99-65.04Z"/>
    <path class="cls-27" d="M480.02,1098.31l53.94,34.23s-1.26,21.13-15.7,19.62c-14.44-1.51-39.34-10.49-38.3,4.06,1.04,14.55-10.09,21.59-19.83,18.07-9.74-3.52-23.28-21.55-38.21-9.77-14.93,11.78-28.09,15.08-34.59,10.67-6.5-4.42-11.71-22.25-20.79-14.09-9.08,8.16-22.18,11.68-30.94,6.65-8.76-5.03-15.24-6.65-15.24-6.65l34.28-40.99s66.41,9.94,125.36-21.8Z"/>
    <g>
      <path class="cls-44" d="M396.07,1063.51l13.57,23.24s-13.2,14.9-14.5,16.05c0,0-14.4-2.4-19.52-2.19-.87.03-1.55-.74-1.42-1.61,1.22-7.86,5.31-36.31,1.83-43.13l20.03,7.64Z"/>
      <g class="cls-47">
        <use transform="translate(435.56 1043.08) rotate(-180) scale(.02 -.02)" xlink:href="#image"/>
      </g>
      <path class="cls-36" d="M396.07,1063.51l13.57,23.24s-13.2,14.9-14.5,16.05c0,0-14.4-2.4-19.52-2.19-.87.03-1.55-.74-1.42-1.61,1.22-7.86,5.31-36.31,1.83-43.13l20.03,7.64Z"/>
    </g>
    <path class="cls-17" d="M326.23,1092.26s11.84,23.63,26.18,17.42l.11-35.1-26.28,17.68"/>
    <g>
      <path class="cls-44" d="M342.16,1052.17l-20.39,17.57s14.54,21.4,15.39,22.91c0,0,21.98,3.27,22.41,5.1,0,0-7.4-24.1,5.42-47.66l-22.84,2.07Z"/>
      <g class="cls-46">
        <use transform="translate(311.45 1020.02) rotate(18.96) scale(.02)" xlink:href="#image"/>
      </g>
      <path class="cls-36" d="M342.16,1052.17l-20.39,17.57s14.54,21.4,15.39,22.91c0,0,21.98,3.27,22.41,5.1,0,0-7.4-24.1,5.42-47.66l-22.84,2.07Z"/>
    </g>
    <path class="cls-33" d="M376.72,1055.65s18.13,10.63,29.83,11.97c0,0-5.57-3.17-6.98-4.96s-13.27-9.61-22.86-7.01Z"/>
    <path class="cls-33" d="M364.95,1050.76s-19.11,3.66-30.49.58c0,0,4.69-1.37,6.66-2.5s15.88-4.04,23.83,1.92Z"/>
    <ellipse class="cls-40" cx="461.22" cy="992.37" rx="6.71" ry="16.4" transform="translate(-570.79 1356.34) rotate(-84.5)"/>
    <ellipse class="cls-40" cx="296.14" cy="973.99" rx="6.71" ry="16.4" transform="translate(-701.75 1175.39) rotate(-84.5)"/>
    <path class="cls-5" d="M557.25,910.93c17.24,7.63,76.16,76.65,60.59,117.75-15.57,41.1.71,46.67,3.68,56.72,3.22,10.91-6.51,23.48-21.58,30.04-12.98,5.65-4.36,27.48,9.56,29.28,0,0-22.65,15.63-46.94-14.44-9.09-11.26,20.59-22.04,19.7-39.51s-31.09-55.91-26.72-84.06c4.37-28.15.89-50.78-10.84-57.67"/>
    <path class="cls-4" d="M273.64,895.15c-17.24,7.63-76.16,76.65-60.59,117.75,15.57,41.1-.71,46.67-3.68,56.72-3.22,10.91,6.51,23.48,21.58,30.04,12.98,5.65-.37,26.25-14.3,28.05,0,0,40.98,23.94,51.68-13.21,5.22-18.12-20.59-22.04-19.7-39.51.89-17.47,31.09-55.91,26.72-84.06-4.37-28.15-.89-50.78,10.84-57.67"/>
    <path class="cls-21" d="M255.9,891.84c0,15.59,6.47,25.77,22.06,25.77,15.59,0,7.33-13.01,7.33-28.6,0-15.59,14.43-25.4-1.15-25.4s-28.23,12.64-28.23,28.23Z"/>
    <path class="cls-48" d="M352.72,904.23c-18.81-3.01-38.55-2.48-56.94,2.8-1.28.42-4.41,1.48-5.71,1.92,2.11-.96,5.22-2.5,7.37-3.27,13.87-5.52,28.88-7.97,43.77-8.54,4.2-.12,8.16-.14,12.45.15,0,0-.94,6.94-.94,6.94h0Z"/>
    <path class="cls-48" d="M433.67,904.02c19.57,5.19,38.87,14.26,54.07,27.72,0,0,2.97,2.73,2.97,2.73-1.87-1.36-4.6-3.47-6.55-4.65-6.64-4.35-13.91-7.97-21.3-10.81-7.37-2.86-15.03-5.13-22.75-6.75-2.55-.54-5.2-1.02-7.64-1.34l1.21-6.89h0Z"/>
    <path class="cls-20" d="M518.15,962.8s3.23,5.65-10.08,24.84c-13.31,19.2-22.08,40.36-20.98,52.57s-17.31,19.59-17.31,19.59c0,0,9.38-12.17,7.68-26.15s4.2-50.51,13.6-66.28c9.4-15.77,5.12-47.9,2.58-57.48l-3.43,28.57-9.96-6.43s9.1-41.3,2.42-51.3l-10,46.51s-28.23-17.83-42.88-16.26l4.66-51.17s-9.61,35.68-13.15,49.49c0,0-12.95-1.83-20.24-1.51-5.35.24,5.82-56.17,7.14-64.35,1.32-8.18-36.36,51.65-38.43,62.56,0,0-43.39-7.81-56.27-1.44,0,0,10.4-53.09,19.85-79.35l-29.61,77.47-5.67,1.4,1.66-48.44c-10.49.15-12.46,105.52-18.86,116.07-7.9,13.02-6.46,50.65,1.92,59.95,8.39,9.3,0,22.63,0,22.63,0,0,.63-13.19-9.41-16.02-10.03-2.84-20.06-40.9-18.35-66.89,1.48-22.53,19.34-71.45,27.3-108.59,0,0,2.57-58.98,69.39-79.79,55.72-17.35,106.74-23.62,156.36,23.82,30.71,29.35,49.47,82.06,44.89,114.36-.41,2.92-.95,5.86-1.58,8.78-6.36,29.42-18.75,49.6-18.75,49.6l-14.48-16.74Z"/>
    <circle class="cls-21" cx="550.5" cy="925.38" r="28.23"/>
    <path class="cls-10" d="M387.66,1060.74c3.64-1.04,7.39-1.18,10.96-.42,9.42,2.02,27.59,6.32,27.81,9.46.29,4.24-7.67,3.41-9.65,6.31,0,0,11.48,15.28,11.8,25.74.32,10.46-9.68,23.35-43.05-5.88,0,0,.3,2.19-14.63-19.12l16.76-16.1Z"/>
    <path class="cls-10" d="M356.03,1056.18c-2.88-2.46-6.23-4.14-9.8-4.93-9.41-2.07-27.73-5.71-29.23-2.94-2.03,3.74,5.56,6.29,6.16,9.74,0,0-16.79,9.13-21.42,18.51-4.64,9.38-.89,25.26,41.61,12.53,0,0,.23,1.26,23.86-12.87l-11.17-20.05Z"/>
    <path class="cls-2" d="M418.89,1074.39s-10.18,2.88-11.16,4.64"/>
    <path class="cls-2" d="M320.66,1054.69s8.06,6.86,8.21,8.87"/>
    <path class="cls-12" d="M527.66,961.27c5.32-11.31,9.88-24.37,13.62-39.46,17.77-71.64-51.44-134.62-124.24-134.62-72.8,0-138.26,42.85-131.86,116.44,1.25,14.33,3.73,28.56-.34,39.86-6.59,18.26,1.21,36.34,8.49,45.26,9.47,11.59,32.04,33.74,97.54,42.99,37.22,5.26,70.27-4.69,96.29-21.72"/>
    <path class="cls-12" d="M370.04,1075.95s18.4-8.02,23.95-8.64,4.94-2.88,0-6.38-31.47-2.41-37.64,4.14"/>
    <path class="cls-15" d="M523.77,964.1c-6.66-3.85-15.69-1.62-23.47,4.89"/>
    <path class="cls-12" d="M482.66,1015.23c9.77,5.64,31.16-2.97,43.32-14.09,12.62-11.54,7.56-31.4-2.21-37.04"/>
    <path class="cls-23" d="M457.04,1025.27s33.55,88.82,33.58,136.14l-137.68-1.5s-.48-131.57-2.61-135.4c-2.13-3.84,26.57,8.61,55.66,8.9,29.09.29,51.05-8.13,51.05-8.13Z"/>
    <path class="cls-43" d="M461.15,928.12s23.8,19.04,24.75,25.71c.95,6.66-4.87,20.61-5.82,23.81-1.23,4.15-33.86,13.75-45.52,9.95-11.66-3.81-22.68-22.81-22.68-22.81l-3.94-5.87s-5.1-3.89,4.66-37.92,0,0,0,0l34.75-.71,13.81,7.85Z"/>
    <ellipse class="cls-34" cx="438.99" cy="954.72" rx="30.79" ry="32.41"/>
    <path class="cls-29" d="M408.19,954.72c1.29,19.73,15.22,31.5,29.44,32.21,12.02.6,22.8-6.15,28.38-16.48,0,0-10.04-7.57-26.68-11.83-15.08-3.86-31.14-3.91-31.14-3.91Z"/>
    <path class="cls-43" d="M310.1,913.8l30.81.67s6.75,2,4.47,23.92c-2.89,27.82.7,27.13.7,27.13l-19.12,9.67s-22.04,2.25-33.51-20.47l-3.37-21.82,20.02-19.12Z"/>
    <ellipse class="cls-34" cx="329.44" cy="944.39" rx="22.27" ry="30.37"/>
    <path class="cls-29" d="M306.8,946.74c1.55,15.68,11.84,28.41,22.6,28.41,10.98,0,21.45-14.6,21.18-21.47,0,0-10.35-6.98-19.69-6.65s-24.09-.28-24.09-.28Z"/>
    <polygon class="cls-30" points="346.11 915.1 351.13 918.96 346.38 918.03 346.19 921.45 343.46 917.58 346.11 915.1"/>
    <polygon class="cls-24" points="290.21 951.57 294.44 956.52 295.92 950.06 290.21 951.57"/>
    <path class="cls-3" d="M413.88,921.27s32.28-11.41,54.17,12.12c21.89,23.53,17.37,21.43,17.92,35.57l-8.4,8.16"/>
    <path class="cls-3" d="M345.42,917.56s-27.72-25.6-55.45,17.62l2.92,15.51"/>
    <path class="cls-26" d="M356.35,987.13s-6.12,1.04-4.3,4.7c1.82,3.66,6.06,3.39,4.3,4.96s-2.6,1.37-2.73,3.56,4.6,3.49,4.6,3.49"/>
    <line class="cls-26" x1="363.18" y1="966.32" x2="360.59" y2="966.32"/>
    <polygon class="cls-24" points="475.3 975.25 473.06 981.36 479.42 979.49 475.3 975.25"/>
    <polygon class="cls-30" points="415.32 918.41 409.31 920.44 414.11 921.1 413.18 924.4 417.02 921.62 415.32 918.41"/>
    <ellipse class="cls-1" cx="438.63" cy="954.85" rx="17.54" ry="11.32" transform="translate(-592.67 1156.22) rotate(-76.38)"/>
    <ellipse class="cls-1" cx="329.44" cy="944.39" rx="8.79" ry="14.85"/>
    <circle class="cls-43" cx="451.87" cy="944.39" r="4.86"/>
    <circle class="cls-43" cx="337.29" cy="932.86" r="4.86"/>
    <g>
      <g>
        <path class="cls-43" d="M339.95,1200.36s-7.68,6.51-7.06,6.51,4.75-1.16,5.55.83c.27.68,1.04,1.03,2.03,1.18.74-2.22,1.52-4.57,2.31-6.98-1.09-.5-2.04-1.01-2.83-1.53Z"/>
        <path class="cls-50" d="M333.49,1230.11c-8.27,17.3,5.84,18.06,5.84,18.06,23.96,5.91,32.96-16.23,32.96-16.23l-.52,4.31,6.35.2s.66-2.74,1.22-6.72c.48-3.41-.8-7.25-1.18-8.27-2.4,2.82-5.13,5.76-8.27,8.8,0,0-1.87.75-4.74,1.71,0,0,0,0-.02,0-3.34,2.08-5.89,3.36-5.89,3.36-19.29,7.19-24.35-1.4-25.47-4.31-.22-.55-.29-.9-.29-.9Z"/>
        <path class="cls-43" d="M333.84,1227.8s-.7,1.44.04,3.18c.66,1.55,2.44,3.34,6.83,4.59,6.48,1.83,17.96-1.41,24.43-3.59,0,0,.02,0,.02,0,1.25-.77,2.6-1.65,3.97-2.62l-5.4,2.16s-20.03-9.22-29.38-5.13c-.33.92-.52,1.43-.52,1.43Z"/>
        <path class="cls-50" d="M335.57,1220.71l-1.32,5.71s.07-.03.1-.05c.45-1.23,1.17-3.21,2.06-5.73-.29.02-.57.05-.85.08Z"/>
        <path class="cls-50" d="M336.41,1220.63c-.89,2.53-1.61,4.5-2.06,5.73,9.34-4.09,29.38,5.13,29.38,5.13l5.4-2.16c.28-.19.55-.39.84-.6-2.87-1.14-22.82-8.79-33.55-8.1Z"/>
        <path class="cls-43" d="M336.41,1220.63c10.74-.69,30.68,6.97,33.55,8.1,3.05-2.21,6.09-4.82,8.1-7.55,0,0,.04.09.1.26.87-1.02,1.7-2.04,2.48-3.04-.19-.13-.38-.27-.55-.42-2.68-2.26-5.57-3.28-6.6-2.26-1.02,1.03-5.98,1.86-6.8-.21-.83-2.06-1.24-4.94-4.95-4.53-3.7.41-8.25,2.06-9.17,0-.92-2.07-3.4-4.13-5.88-3.09-1.63.68-4.33,1.22-6.23.97-1.53,4.54-2.93,8.58-4.05,11.76Z"/>
        <path class="cls-43" d="M340.46,1208.87c1.9.25,4.61-.29,6.23-.97,2.47-1.03,4.95,1.02,5.88,3.09.92,2.06,5.47.41,9.17,0,3.71-.41,4.13,2.47,4.95,4.53.82,2.07,5.77,1.24,6.8.21,1.03-1.02,3.92,0,6.6,2.26.18.15.37.29.55.42,1.52-1.93,2.88-3.8,4.09-5.6l-.25-1.27s-29.43-4-41.71-9.65c-.79,2.42-1.57,4.77-2.31,6.98Z"/>
        <path class="cls-42" d="M353.33,1163.43c-1.75,10.23-6.29,25.41-10.56,38.46,12.28,5.65,41.71,9.65,41.71,9.65l.25,1.27c11.8-17.57,9.8-28.9,9.8-28.9l-.96-2.8,26.35.94c.84,4.59-.91,16.04-3.1,27.35.96-.84,1.66-1.43,1.66-1.43,9.17,6.11,41.05,10.7,44.28,11.15,11.43-12.99,24.32-31.98,27.68-54.19l-137.12-1.49Z"/>
        <path class="cls-42" d="M353.98,1158.62l-1.21,4.8h.56c.31-1.76.53-3.37.65-4.8Z"/>
        <path class="cls-50" d="M369.13,1229.34c-1.36.97-2.72,1.85-3.97,2.62,2.87-.96,4.74-1.71,4.74-1.71,3.14-3.04,5.88-5.98,8.27-8.8-.07-.17-.1-.26-.1-.26-2.01,2.73-5.06,5.34-8.1,7.55.23.08.35.13.35.13l-1.18.47Z"/>
        <path class="cls-50" d="M369.13,1229.34l1.18-.47s-.12-.05-.35-.13c-.28.21-.55.41-.84.6Z"/>
        <path class="cls-43" d="M384.74,1212.81c-1.21,1.8-2.57,3.68-4.09,5.6,2.56,1.75,5.42,1.22,5.42,1.22l-1.33-6.82Z"/>
        <path class="cls-50" d="M410.37,1237.05c-7.73,17.55,6.4,17.87,6.4,17.87,24.13,5.16,32.43-17.25,32.43-17.25l-.39,4.31h6.36s.57-2.76,1.01-6.76c.34-3.06-.74-6.41-1.27-7.81-6.61,6.51-11.46,10.16-11.46,10.16,0,0-2.27,1.42-5.64,3.01-.02,0-.03,0-.05.02-.93.55-1.49.86-1.49.86-1.96.8-3.78,1.44-5.45,1.91-7.31,2.33-15.8,3.01-19.54-4.23l-.08-.14c-.63-1.12-.83-1.95-.83-1.95Z"/>
        <path class="cls-42" d="M410.93,1236.17c-.23.9-.35,1.4-.35,1.4.19.5.39.98.61,1.42l.08.14c1.8,3.03,6.78,7.9,19.54,4.23,2.54-.8,4.94-1.81,6.95-2.76.02,0,.03-.02.05-.02,1.84-1.08,5.09-3.08,8.38-5.59l-.07-.08c-.75.6-1.57,1.14-2.26,1.29,0,0-26.34,16.67-32.87,0l-.07-.02Z"/>
        <path class="cls-43" d="M410.93,1236.17l.07.02c6.53,16.67,32.87,0,32.87,0,0,0-22.16-10.13-31.44-5.93l1.06-4.65-.08-.02c-1.08,4.79-2,8.64-2.47,10.58Z"/>
        <path class="cls-43" d="M416.82,1209.4c-2.22,1.92-5.83,5.1-5.4,5.1s2.87-.64,4.4-.15c.34-1.64.67-3.29,1-4.94Z"/>
        <path class="cls-50" d="M413.49,1225.61l-1.06,4.65c9.29-4.2,31.44,5.93,31.44,5.93l4.62-3.48s-23.44-9.43-34.75-8.16l-.24,1.05Z"/>
        <path class="cls-43" d="M413.4,1225.59l.08.02.24-1.05c11.31-1.27,34.75,8.16,34.75,8.16,0,0-1.09,1.19-2.36,2.19l.07.08c3.17-2.4,6.39-5.28,8.45-8.25,0,0,.11.24.27.68.85-.83,1.72-1.71,2.62-2.64-2.33-1.65-4.62-2.3-5.5-1.41-1.03,1.02-5.98,1.85-6.81-.21-.83-2.07-1.23-4.95-4.94-4.54s-8.25,2.06-9.17,0c-.93-2.06-3.41-4.12-5.88-3.09-2.46,1.03-7.45,1.78-8.25-.21-.21-.51-.63-.8-1.15-.97-.83,4-1.66,7.86-2.43,11.24Z"/>
        <path class="cls-43" d="M416.82,1209.4c-.33,1.65-.66,3.31-1,4.94.52.17.94.46,1.15.97.81,1.98,5.79,1.24,8.25.21,2.47-1.02,4.95,1.03,5.88,3.09.92,2.06,5.46.41,9.17,0s4.12,2.47,4.94,4.54c.83,2.06,5.77,1.23,6.81.21.88-.89,3.17-.24,5.5,1.41,1.68-1.73,3.43-3.61,5.23-5.65-3.22-.45-35.11-5.04-44.28-11.15,0,0-.71.59-1.66,1.43Z"/>
        <path class="cls-50" d="M411.28,1239.13c3.74,7.24,12.23,6.56,19.54,4.23-12.77,3.67-17.75-1.2-19.54-4.23Z"/>
        <path class="cls-50" d="M446.19,1234.99c-3.29,2.51-6.53,4.51-8.38,5.59,3.37-1.59,5.64-3.01,5.64-3.01,0,0,4.85-3.65,11.46-10.16-.16-.43-.27-.68-.27-.68-2.06,2.97-5.28,5.86-8.45,8.25Z"/>
        <path class="cls-42" d="M448.49,1232.71l-4.62,3.48c.69-.15,1.5-.69,2.26-1.29,1.27-1,2.36-2.19,2.36-2.19Z"/>
        <path class="cls-43" d="M457.54,1224.77c.37.26.73.55,1.09.85,2.69,2.26,5.98,1.65,5.98,1.65l-1.58-8.1s-.09,0-.26-.04c-1.8,2.04-3.54,3.92-5.23,5.65Z"/>
      </g>
      <g>
        <path class="cls-15" d="M342.78,1201.89c4.27-13.05,8.81-28.23,10.56-38.46.31-1.77.53-3.38.65-4.81"/>
        <path class="cls-15" d="M336.41,1220.63c1.12-3.18,2.52-7.22,4.05-11.76"/>
        <path class="cls-15" d="M333.87,1230.97c-.73-1.74-.04-3.18-.04-3.18,0,0,.19-.51.52-1.43"/>
        <path class="cls-26" d="M365.14,1231.97c-6.47,2.18-17.95,5.42-24.43,3.59-4.39-1.25-6.18-3.04-6.83-4.59"/>
        <path class="cls-15" d="M380.65,1218.42c-.78,1-1.61,2.01-2.48,3.04"/>
        <path class="cls-15" d="M416.82,1209.4c2.19-11.31,3.94-22.76,3.1-27.35l-26.35-.94.96,2.8s2,11.33-9.8,28.9"/>
        <path class="cls-15" d="M411.19,1238.99c-.22-.44-.42-.92-.61-1.42,0,0,.12-.5.35-1.4.47-1.95,1.39-5.79,2.47-10.58.76-3.38,1.6-7.24,2.43-11.24"/>
        <path class="cls-15" d="M437.77,1240.6c-2.01.95-4.41,1.96-6.95,2.76"/>
        <path class="cls-15" d="M457.54,1224.77c-.9.93-1.78,1.81-2.62,2.64"/>
        <path class="cls-15" d="M352.77,1163.42h.56s137.12,1.5,137.12,1.5c-3.37,22.21-16.25,41.2-27.68,54.19"/>
        <path class="cls-26" d="M443.87,1236.19s-26.34,16.67-32.87,0"/>
        <path class="cls-26" d="M448.49,1232.71s-23.44-9.43-34.75-8.16l-.24,1.05-1.06,4.65c9.29-4.2,31.44,5.93,31.44,5.93"/>
        <path class="cls-26" d="M369.96,1228.74c-2.87-1.14-22.82-8.79-33.55-8.1-.29.02-.57.05-.85.08l-1.32,5.71s.07-.03.1-.05c9.34-4.09,29.38,5.13,29.38,5.13l5.4-2.16"/>
        <path class="cls-26" d="M446.19,1234.99c3.17-2.4,6.39-5.28,8.45-8.25,0,0,.11.24.27.68.53,1.4,1.61,4.75,1.27,7.81-.43,4-1.01,6.76-1.01,6.76h-6.36l.39-4.31s-8.3,22.41-32.43,17.25c0,0-14.13-.32-6.4-17.87,0,0,.2.83.83,1.95l.08.14c1.8,3.03,6.78,7.9,19.54,4.23,1.67-.47,3.49-1.11,5.45-1.91,0,0,.56-.3,1.49-.86.02,0,.03-.02.05-.02,1.84-1.08,5.09-3.08,8.38-5.59Z"/>
        <path class="cls-26" d="M365.16,1231.96c1.25-.77,2.6-1.65,3.97-2.62.28-.19.55-.39.84-.6,3.05-2.21,6.09-4.82,8.1-7.55,0,0,.04.09.1.26.38,1.02,1.65,4.86,1.18,8.27-.56,3.98-1.22,6.72-1.22,6.72l-6.35-.2.52-4.31s-9,22.14-32.96,16.23c0,0-14.11-.76-5.84-18.06,0,0,.08.35.29.9,1.12,2.91,6.18,11.51,25.47,4.31,0,0,2.56-1.28,5.89-3.36"/>
        <path class="cls-26" d="M416.82,1209.4c.96-.84,1.66-1.43,1.66-1.43,9.17,6.11,41.05,10.7,44.28,11.15.17.03.26.04.26.04l1.58,8.1s-3.29.61-5.98-1.65c-.36-.3-.72-.58-1.09-.85-2.33-1.65-4.62-2.3-5.5-1.41-1.03,1.02-5.98,1.85-6.81-.21-.83-2.07-1.23-4.95-4.94-4.54s-8.25,2.06-9.17,0c-.93-2.06-3.41-4.12-5.88-3.09-2.46,1.03-7.45,1.78-8.25-.21-.21-.51-.63-.8-1.15-.97-1.53-.49-3.95.15-4.4.15s3.18-3.18,5.4-5.1Z"/>
        <path class="cls-26" d="M340.46,1208.87c-.99-.14-1.76-.5-2.03-1.18-.8-1.98-4.93-.83-5.55-.83s7.06-6.51,7.06-6.51c.79.53,1.74,1.03,2.83,1.53,12.28,5.65,41.71,9.65,41.71,9.65l.25,1.27,1.33,6.82s-2.87.53-5.42-1.22c-.19-.13-.38-.27-.55-.42-2.68-2.26-5.57-3.28-6.6-2.26-1.02,1.03-5.98,1.86-6.8-.21-.83-2.06-1.24-4.94-4.95-4.53-3.7.41-8.25,2.06-9.17,0-.92-2.07-3.4-4.13-5.88-3.09-1.63.68-4.33,1.22-6.23.97Z"/>
        <path class="cls-26" d="M448.49,1232.71s-1.09,1.19-2.36,2.19c-.75.6-1.57,1.14-2.26,1.29"/>
      </g>
    </g>
    <g>
      <path class="cls-49" d="M367.44,1036.48c.77-3.15,3.92-4.93,7.06-4.15h0c4.88,1.23,7.9,5.99,6.73,10.64l-6.09,12.88-9.99-2.34,2.28-17.03ZM381.33,1042.42l-5.67,12.65c18.98-1.9,26.69,12.4,32.63,12.89.4.03.78.01,1.14-.07,5.86-1.33,10.46-27.72,6.02-30.51-4.44-2.79-34.13.61-34.13.61v4.43ZM367.57,1034.75s-18.51-14.15-24.41-13.34-12.79,24.25-11.19,28.6,15.39-2.25,33.2,0l2.4-15.26Z"/>
      <path class="cls-35" d="M367.44,1036.48c.77-3.15,3.92-4.93,7.06-4.15h0c4.88,1.23,7.9,5.99,6.73,10.64l-6.09,12.88-9.99-2.34,2.28-17.03ZM381.33,1042.42l-5.67,12.65c18.98-1.9,26.69,12.4,32.63,12.89.4.03.78.01,1.14-.07,5.86-1.33,10.46-27.72,6.02-30.51-4.44-2.79-34.13.61-34.13.61v4.43ZM367.57,1034.75s-18.51-14.15-24.41-13.34-12.79,24.25-11.19,28.6,15.39-2.25,33.2,0l2.4-15.26Z"/>
    </g>
    <path class="cls-16" d="M403.28,1070.49c-2.65.44-5.46.51-8.45.12l-3.54,30.4s40.83,13.19,59.94,6.69c19.1-6.5,31.49-32.61,31.49-32.61,0,0-.41.59,0,0,9.42-31.03-8.67-40.82-9.25-41.15.55-.6-18.67-10.98-31.18.84-8.15,7.7-18.86,32.38-39,35.71"/>
    <path class="cls-8" d="M354.92,1120.11c70.54,10.05,125.09-21.8,125.09-21.8l64.51,59.41s-5.06,22.01-33.09,23.46c-14.17.74-35.13-6.14-43.43,4.03-8.3,10.16-23.33,11.27-33.69,4.89-10.36-6.37-29.15,2.21-44.32-6.15-17.05-9.4-42.3,17.5-53.52,8.09-11.22-9.41-29.53-6.9-29.53-6.9l47.99-65.04Z"/>
    <path class="cls-8" d="M480.02,1098.31l53.94,34.23s-1.26,21.13-15.7,19.62c-14.44-1.51-39.34-10.49-38.3,4.06,1.04,14.55-10.09,21.59-19.83,18.07-9.74-3.52-23.28-21.55-38.21-9.77-14.93,11.78-28.09,15.08-34.59,10.67-6.5-4.42-11.71-22.25-20.79-14.09-9.08,8.16-22.18,11.68-30.94,6.65-8.76-5.03-15.24-6.65-15.24-6.65l34.28-40.99s66.41,9.94,125.36-21.8Z"/>
    <g>
      <path class="cls-49" d="M396.07,1063.51l13.57,23.24s-13.2,14.9-14.5,16.05c0,0-14.4-2.4-19.52-2.19-.87.03-1.55-.74-1.42-1.61,1.22-7.86,5.31-36.31,1.83-43.13l20.03,7.64Z"/>
      <path class="cls-35" d="M396.07,1063.51l13.57,23.24s-13.2,14.9-14.5,16.05c0,0-14.4-2.4-19.52-2.19-.87.03-1.55-.74-1.42-1.61,1.22-7.86,5.31-36.31,1.83-43.13l20.03,7.64Z"/>
    </g>
    <path class="cls-23" d="M326.23,1092.26s11.84,23.63,26.18,17.42l.11-35.1-26.28,17.68"/>
    <g>
      <path class="cls-49" d="M342.16,1052.17l-20.39,17.57s14.54,21.4,15.39,22.91c0,0,21.98,3.27,22.41,5.1,0,0-7.4-24.1,5.42-47.66l-22.84,2.07Z"/>
      <path class="cls-35" d="M342.16,1052.17l-20.39,17.57s14.54,21.4,15.39,22.91c0,0,21.98,3.27,22.41,5.1,0,0-7.4-24.1,5.42-47.66l-22.84,2.07Z"/>
    </g>
    <path class="cls-31" d="M376.72,1055.65s18.13,10.63,29.83,11.97c0,0-5.57-3.17-6.98-4.96s-13.27-9.61-22.86-7.01Z"/>
    <path class="cls-31" d="M364.95,1050.76s-19.11,3.66-30.49.58c0,0,4.69-1.37,6.66-2.5s15.88-4.04,23.83,1.92Z"/>
    <ellipse class="cls-40" cx="461.22" cy="992.37" rx="6.71" ry="16.4" transform="translate(-570.79 1356.34) rotate(-84.5)"/>
    <ellipse class="cls-40" cx="296.14" cy="973.99" rx="6.71" ry="16.4" transform="translate(-701.75 1175.39) rotate(-84.5)"/>
    <path class="cls-11" d="M557.25,910.93c17.24,7.63,76.16,76.65,60.59,117.75-15.57,41.1.71,46.67,3.68,56.72,3.22,10.91-6.51,23.48-21.58,30.04-12.98,5.65-4.36,27.48,9.56,29.28,0,0-22.65,15.63-46.94-14.44-9.09-11.26,20.59-22.04,19.7-39.51s-31.09-55.91-26.72-84.06c4.37-28.15.89-50.78-10.84-57.67"/>
    <path class="cls-32" d="M273.64,895.15c-17.24,7.63-76.16,76.65-60.59,117.75,15.57,41.1-.71,46.67-3.68,56.72-3.22,10.91,6.51,23.48,21.58,30.04,12.98,5.65-.37,26.25-14.3,28.05,0,0,40.98,23.94,51.68-13.21,5.22-18.12-20.59-22.04-19.7-39.51.89-17.47,31.09-55.91,26.72-84.06-4.37-28.15-.89-50.78,10.84-57.67"/>
    <path class="cls-13" d="M255.9,891.84c0,15.59,6.47,25.77,22.06,25.77,15.59,0,7.33-13.01,7.33-28.6,0-15.59,14.43-25.4-1.15-25.4s-28.23,12.64-28.23,28.23Z"/>
    <path class="cls-48" d="M352.59,905.22c-18.71-3.32-38.35-3.08-56.77,1.9-1.3.41-4.43,1.41-5.75,1.83,1.26-.62,4.25-2.05,5.46-2.63,1.84-.74,3.8-1.57,5.64-2.28,12.82-4.65,26.44-7.04,40.06-7.72,4.23-.18,8.29-.27,12.56-.03,0,0-1.21,8.92-1.21,8.92h0Z"/>
    <path class="cls-48" d="M433.85,903.04c19.54,5.46,38.91,14.92,53.93,28.66,0,0,2.93,2.77,2.93,2.77-1.9-1.33-4.65-3.4-6.62-4.55-11.19-7.08-23.75-11.89-36.53-15.12-3.68-.89-7.8-1.8-11.52-2.37-1.26-.21-2.6-.4-3.74-.52l1.56-8.86h0Z"/>
    <path class="cls-39" d="M518.15,962.8s3.23,5.65-10.08,24.84c-13.31,19.2-22.08,40.36-20.98,52.57s-17.31,19.59-17.31,19.59c0,0,9.38-12.17,7.68-26.15s4.2-50.51,13.6-66.28c9.4-15.77,5.12-47.9,2.58-57.48l-3.43,28.57-9.96-6.43s9.1-41.3,2.42-51.3l-10,46.51s-28.23-17.83-42.88-16.26l4.66-51.17s-9.61,35.68-13.15,49.49c0,0-12.95-1.83-20.24-1.51-5.35.24,5.82-56.17,7.14-64.35,1.32-8.18-36.36,51.65-38.43,62.56,0,0-43.39-7.81-56.27-1.44,0,0,10.4-53.09,19.85-79.35l-29.61,77.47-5.67,1.4,1.66-48.44c-10.49.15-12.46,105.52-18.86,116.07-7.9,13.02-6.46,50.65,1.92,59.95,8.39,9.3,0,22.63,0,22.63,0,0,.63-13.19-9.41-16.02-10.03-2.84-20.06-40.9-18.35-66.89,1.48-22.53,19.34-71.45,27.3-108.59,0,0,2.57-58.98,69.39-79.79,55.72-17.35,106.74-23.62,156.36,23.82,30.71,29.35,49.47,82.06,44.89,114.36-.41,2.92-.95,5.86-1.58,8.78-6.36,29.42-18.75,49.6-18.75,49.6l-14.48-16.74Z"/>
    <circle class="cls-13" cx="550.5" cy="925.38" r="28.23"/>
    <path class="cls-22" d="M387.66,1060.74c3.64-1.04,7.39-1.18,10.96-.42,9.42,2.02,27.59,6.32,27.81,9.46.29,4.24-7.67,3.41-9.65,6.31,0,0,11.48,15.28,11.8,25.74.32,10.46-9.68,23.35-43.05-5.88,0,0,.3,2.19-14.63-19.12l16.76-16.1Z"/>
    <path class="cls-22" d="M356.03,1056.18c-2.88-2.46-6.23-4.14-9.8-4.93-9.41-2.07-27.73-5.71-29.23-2.94-2.03,3.74,5.56,6.29,6.16,9.74,0,0-16.79,9.13-21.42,18.51-4.64,9.38-.89,25.26,41.61,12.53,0,0,.23,1.26,23.86-12.87l-11.17-20.05Z"/>
    <path class="cls-26" d="M418.89,1074.39s-10.18,2.88-11.16,4.64"/>
    <path class="cls-26" d="M320.66,1054.69s8.06,6.86,8.21,8.87"/>
  </g>
</svg>